<svg xmlns="http://www.w3.org/2000/svg" xmlns:xlink="http://www.w3.org/1999/xlink" width="101" height="130" viewBox="0 0 101 130">
  <defs>
    <linearGradient id="linear-gradient" x1="0.5" x2="0.5" y2="1" gradientUnits="objectBoundingBox">
      <stop offset="0" stop-color="red"/>
      <stop offset="0.731" stop-color="#a40000"/>
      <stop offset="1" stop-color="#830000"/>
    </linearGradient>
  </defs>
  <g id="Group_407" data-name="Group 407" transform="translate(-380 -725)">
    <g id="Group_386" data-name="Group 386" transform="translate(-12250 544.657)">
      <g id="Group_167" data-name="Group 167" transform="translate(12630 180.343)">
        <rect id="Rectangle_1590" data-name="Rectangle 1590" width="100" height="130" rx="12" transform="translate(0 0)" fill="url(#linear-gradient)"/>
      </g>
      <text id="_10Gb" data-name="10Gb" transform="translate(12638 294.343)" fill="#fff" font-size="42" font-family="SegoeUI-Semibold, Segoe UI" font-weight="600"><tspan x="0" y="0">10</tspan><tspan y="0" font-size="34">Gb</tspan></text>
      <text id="SALE" transform="translate(12638 217.343)" fill="#fff" font-size="24" font-family="SegoeUI-Italic, Segoe UI" font-style="italic"><tspan x="0" y="0">SALE</tspan></text>
      <text id="_-20_" data-name="-20%" transform="translate(12650 244.343)" fill="#fff" font-size="27" font-family="SegoeUI-BoldItalic, Segoe UI" font-weight="700" font-style="italic"><tspan x="0" y="0">-20%</tspan></text>
      <g id="BrandBook_Unlim-01-02" data-name="BrandBook Unlim-01-02" transform="translate(12637.438 189.131)">
        <path id="Path_2" data-name="Path 2" d="M167.866,26.58c.161-.611.314-1.206.467-1.791.076-.289-.017-.408-.314-.416-.382-.008-.382-.008-.484.365-.144.56-.3,1.121-.441,1.681a.222.222,0,0,1-.246.2q-.611-.013-1.223,0c-.136,0-.178-.042-.144-.187.229-.841.45-1.681.671-2.522a.279.279,0,0,1,.246-.229,7.862,7.862,0,0,1,2.14-.153,5.572,5.572,0,0,1,.747.161.644.644,0,0,0,.331.025,4.784,4.784,0,0,1,1.664-.187,2.155,2.155,0,0,1,.611.11.709.709,0,0,1,.509.968l-.458,1.783a.265.265,0,0,1-.314.238c-.433-.017-.866-.008-1.35-.008.076-.306.144-.586.212-.858.085-.323.17-.637.255-.959.076-.289-.034-.425-.331-.425-.365-.008-.382.008-.475.357-.153.569-.3,1.138-.458,1.7-.025.076-.119.178-.187.178-.45.017-.9.008-1.341.008C167.942,26.606,167.917,26.589,167.866,26.58Z" transform="translate(-151.423 -21.52)" fill="#fff"/>
        <path id="Path_3" data-name="Path 3" d="M55.611,26.383c.076-.3.136-.56.2-.824.093-.365.2-.73.289-1.1a.233.233,0,0,0-.008-.153c-.127-.229-.348-.161-.543-.17-.153,0-.2.11-.238.229-.153.577-.306,1.155-.45,1.74-.051.2-.119.289-.34.272-.365-.017-.73-.008-1.1-.008H53.2c.093-.357.17-.679.255-1,.144-.552.3-1.1.441-1.656a.343.343,0,0,1,.3-.28,9.081,9.081,0,0,1,2.3-.153,2.842,2.842,0,0,1,.79.161.657.657,0,0,1,.475.883c-.153.62-.323,1.24-.492,1.851-.017.068-.1.178-.153.178C56.613,26.392,56.138,26.383,55.611,26.383Z" transform="translate(-48.686 -21.297)" fill="#fff"/>
        <path id="Path_4" data-name="Path 4" d="M2.179,24.2c-.127.484-.238.917-.348,1.341-.042.17-.093.34-.136.509-.059.238.042.357.289.374.374.017.391.008.484-.357.144-.552.3-1.1.441-1.656a.229.229,0,0,1,.255-.2h1.18c.153,0,.221.034.17.221-.221.8-.433,1.6-.628,2.4-.076.314-.314.331-.535.357-.594.059-1.18.11-1.774.119A3.392,3.392,0,0,1,.7,27.189a.771.771,0,0,1-.62-1.07c.144-.56.3-1.121.441-1.681a.255.255,0,0,1,.3-.229C1.253,24.208,1.695,24.2,2.179,24.2Z" transform="translate(-0.034 -22.145)" fill="#fff"/>
        <path id="Path_5" data-name="Path 5" d="M112.467,8c-.076.3-.136.56-.2.832-.3,1.112-.594,2.224-.883,3.345-.042.178-.119.246-.306.238-.391-.017-.773-.008-1.163,0-.161,0-.187-.059-.153-.2.357-1.333.7-2.674,1.061-4.007.017-.076.1-.187.161-.2C111.465,8,111.949,8,112.467,8Z" transform="translate(-100.431 -7.321)" fill="#fff"/>
        <path id="Path_6" data-name="Path 6" d="M140.08,24.226c-.127.492-.246.959-.365,1.426s-.246.908-.365,1.367a.223.223,0,0,1-.263.2c-.391-.008-.79-.008-1.18,0-.153,0-.2-.034-.161-.2.238-.866.458-1.732.679-2.6a.255.255,0,0,1,.3-.229c.382.008.764,0,1.138,0C139.927,24.2,139.986,24.209,140.08,24.226Z" transform="translate(-126.04 -22.138)" fill="#fff"/>
        <g id="Group_35" data-name="Group 35" transform="translate(12.693 0)">
          <path id="Path_7" data-name="Path 7" d="M216.893,1.333h-1.24c-.3,0-.357-.093-.28-.382.059-.2.119-.416.178-.62A.391.391,0,0,1,215.977,0h2.564c.246,0,.323.11.255.348-.059.221-.127.441-.2.662a.389.389,0,0,1-.433.323Z" transform="translate(-209.756 0)"/>
          <path id="Path_8" data-name="Path 8" d="M178.653,5.359h-.917c-.212,0-.272-.076-.221-.28.034-.136.068-.272.11-.408a.332.332,0,0,1,.348-.272h1.868c.212,0,.263.068.212.272-.034.144-.076.289-.11.433a.327.327,0,0,1-.357.263C179.273,5.359,178.967,5.359,178.653,5.359Z" transform="translate(-175.124 -4.026)"/>
          <path id="Path_9" data-name="Path 9" d="M150.472,7.673h.552c.153,0,.255.042.187.238-.034.085-.025.187-.076.246a.422.422,0,0,1-.255.187c-.382.017-.773.008-1.163.008q-.216,0-.178-.2c.093-.433.119-.492.5-.475C150.192,7.681,150.336,7.673,150.472,7.673Z" transform="translate(-149.533 -7.019)"/>
        </g>
      </g>
      <path id="Path_2952" data-name="Path 2952" d="M-2047,1208.268h68.794" transform="translate(14708.206 -956.486)" fill="none" stroke="#fff" stroke-linecap="round" stroke-width="2"/>
    </g>
  </g>
</svg>
