<svg xmlns="http://www.w3.org/2000/svg" width="191.293" height="45.396" viewBox="0 0 191.293 45.396">
  <g id="BrandBook_Unlim-01-02" data-name="BrandBook Unlim-01-02" transform="translate(-0.034)">
    <path id="Path_2" data-name="Path 2" d="M186.544,50.454c1.418-5.375,2.762-10.6,4.106-15.752.672-2.538-.149-3.583-2.762-3.658-3.359-.075-3.359-.075-4.255,3.21-1.269,4.927-2.613,9.854-3.882,14.781a1.956,1.956,0,0,1-2.165,1.792q-5.375-.112-10.75,0c-1.194,0-1.568-.373-1.269-1.642,2.016-7.391,3.957-14.781,5.9-22.172A2.449,2.449,0,0,1,173.629,25a69.128,69.128,0,0,1,18.812-1.344,49,49,0,0,1,6.569,1.418,5.66,5.66,0,0,0,2.911.224,42.064,42.064,0,0,1,14.632-1.642,18.95,18.95,0,0,1,5.375.97c4.181,1.418,5.6,4.181,4.479,8.51l-4.031,15.677a2.326,2.326,0,0,1-2.762,2.09c-3.807-.149-7.615-.075-11.87-.075.672-2.687,1.269-5.151,1.866-7.54.747-2.837,1.493-5.6,2.24-8.436.672-2.538-.3-3.733-2.911-3.733-3.21-.075-3.359.075-4.181,3.135-1.344,5-2.613,10-4.031,14.93-.224.672-1.045,1.568-1.642,1.568-3.957.149-7.913.075-11.8.075C187.216,50.678,186.992,50.528,186.544,50.454Z" transform="translate(-41.934 -5.961)" fill="#fff"/>
    <path id="Path_3" data-name="Path 3" d="M74.4,50.616c.672-2.613,1.194-4.927,1.792-7.241.821-3.21,1.717-6.42,2.538-9.63a2.052,2.052,0,0,0-.075-1.344c-1.12-2.016-3.061-1.418-4.778-1.493-1.344,0-1.792.97-2.09,2.016C70.445,38,69.1,43.076,67.832,48.227c-.448,1.717-1.045,2.538-2.986,2.389-3.21-.149-6.42-.075-9.63-.075H53.2c.821-3.135,1.493-5.972,2.24-8.809,1.269-4.852,2.613-9.7,3.882-14.557a3.012,3.012,0,0,1,2.613-2.464c6.644-1.493,13.437-1.568,20.231-1.344a24.987,24.987,0,0,1,6.943,1.418c3.807,1.269,5.151,3.882,4.181,7.764-1.344,5.45-2.837,10.9-4.33,16.274-.149.6-.9,1.568-1.344,1.568C83.21,50.691,79.03,50.616,74.4,50.616Z" transform="translate(-13.476 -5.899)" fill="#fff"/>
    <path id="Path_4" data-name="Path 4" d="M18.9,24.2c-1.12,4.255-2.09,8.062-3.061,11.8-.373,1.493-.821,2.986-1.194,4.479-.523,2.09.373,3.135,2.538,3.285,3.285.149,3.434.075,4.255-3.135,1.269-4.852,2.613-9.7,3.882-14.557a2.016,2.016,0,0,1,2.24-1.792H37.932c1.344,0,1.941.3,1.493,1.941C37.484,33.233,35.618,40.25,33.9,47.342c-.672,2.762-2.762,2.911-4.7,3.135-5.226.523-10.377.97-15.6,1.045a29.828,29.828,0,0,1-7.689-1.045c-4.33-1.12-6.943-3.882-5.45-9.406,1.269-4.927,2.613-9.854,3.882-14.781a2.246,2.246,0,0,1,2.613-2.016C10.758,24.275,14.64,24.2,18.9,24.2Z" transform="translate(0 -6.134)" fill="#fff"/>
    <path id="Path_5" data-name="Path 5" d="M133.675,8c-.672,2.613-1.194,4.927-1.792,7.316-2.613,9.779-5.226,19.559-7.764,29.413-.373,1.568-1.045,2.165-2.687,2.09-3.434-.149-6.793-.075-10.227,0-1.418,0-1.642-.523-1.344-1.717,3.135-11.72,6.2-23.516,9.332-35.236.149-.672.9-1.642,1.418-1.717C124.866,8,129.121,8,133.675,8Z" transform="translate(-27.809 -2.028)" fill="#fff"/>
    <path id="Path_6" data-name="Path 6" d="M158.386,24.5c-1.12,4.33-2.165,8.436-3.21,12.542-1.045,4.031-2.165,7.988-3.21,12.019a1.961,1.961,0,0,1-2.314,1.792c-3.434-.075-6.943-.075-10.377,0-1.344,0-1.792-.3-1.418-1.792,2.09-7.615,4.031-15.229,5.972-22.844a2.246,2.246,0,0,1,2.613-2.016c3.359.075,6.719,0,10,0C157.043,24.273,157.565,24.347,158.386,24.5Z" transform="translate(-34.903 -6.132)" fill="#fff"/>
    <g id="Group_35" data-name="Group 35" transform="translate(111.638 0)">
      <path id="Path_7" data-name="Path 7" d="M228.972,11.72h-10.9c-2.613,0-3.135-.821-2.464-3.359.523-1.792,1.045-3.658,1.568-5.45C217.849.821,218.82,0,220.91,0h22.545c2.165,0,2.837.97,2.24,3.061-.523,1.941-1.12,3.882-1.717,5.823a3.422,3.422,0,0,1-3.807,2.837Z" transform="translate(-166.214 0)"/>
      <path id="Path_8" data-name="Path 8" d="M187.652,12.836H179.59c-1.866,0-2.389-.672-1.941-2.464.3-1.194.6-2.389.97-3.583A2.919,2.919,0,0,1,181.68,4.4H198.1c1.866,0,2.314.6,1.866,2.389-.3,1.269-.672,2.538-.97,3.807a2.874,2.874,0,0,1-3.135,2.314C193.1,12.836,190.414,12.836,187.652,12.836Z" transform="translate(-156.621 -1.115)"/>
      <path id="Path_9" data-name="Path 9" d="M157.795,7.692h4.852c1.344,0,2.24.373,1.642,2.09-.3.747-.224,1.642-.672,2.165a3.708,3.708,0,0,1-2.24,1.642c-3.359.149-6.793.075-10.227.075q-1.9,0-1.568-1.792c.821-3.807,1.045-4.33,4.4-4.181C155.331,7.767,156.6,7.692,157.795,7.692Z" transform="translate(-149.533 -1.944)"/>
    </g>
  </g>
</svg>
