<svg xmlns="http://www.w3.org/2000/svg" width="256.232" height="99.558" viewBox="0 0 256.232 99.558">
  <g id="Group_410" data-name="Group 410" transform="translate(-563.174 -2652)">
    <g id="BrandBook_Unlim-01-02" data-name="BrandBook Unlim-01-02" transform="translate(592.638 2676.708)">
      <path id="Path_2" data-name="Path 2" d="M186.669,50.613c1.427-5.407,2.778-10.663,4.13-15.845.676-2.553-.15-3.6-2.778-3.68-3.379-.075-3.379-.075-4.28,3.229-1.277,4.956-2.628,9.912-3.9,14.868a1.968,1.968,0,0,1-2.178,1.8q-5.407-.113-10.813,0c-1.2,0-1.577-.375-1.277-1.652,2.028-7.434,3.98-14.868,5.932-22.3a2.463,2.463,0,0,1,2.178-2.028A69.536,69.536,0,0,1,192.6,23.654c2.253.15,4.431.976,6.608,1.427a5.694,5.694,0,0,0,2.929.225,42.313,42.313,0,0,1,14.718-1.652,19.062,19.062,0,0,1,5.407.976c4.205,1.427,5.632,4.205,4.506,8.561l-4.055,15.77a2.34,2.34,0,0,1-2.778,2.1c-3.83-.15-7.66-.075-11.94-.075.676-2.7,1.277-5.181,1.877-7.584.751-2.854,1.5-5.632,2.253-8.486.676-2.553-.3-3.755-2.929-3.755-3.229-.075-3.379.075-4.205,3.154-1.352,5.031-2.628,10.063-4.055,15.019-.225.676-1.051,1.577-1.652,1.577-3.98.15-7.96.075-11.865.075C187.344,50.838,187.119,50.688,186.669,50.613Z" transform="translate(-41.238 -5.857)" fill="red"/>
      <path id="Path_3" data-name="Path 3" d="M74.526,50.777c.676-2.628,1.2-4.956,1.8-7.284.826-3.229,1.727-6.458,2.553-9.687a2.064,2.064,0,0,0-.075-1.352c-1.126-2.028-3.079-1.427-4.806-1.5-1.352,0-1.8.976-2.1,2.028-1.352,5.106-2.7,10.213-3.98,15.394-.451,1.727-1.051,2.553-3,2.4-3.229-.15-6.458-.075-9.687-.075H53.2c.826-3.154,1.5-6.007,2.253-8.861,1.277-4.881,2.628-9.762,3.9-14.643a3.03,3.03,0,0,1,2.628-2.478c6.683-1.5,13.517-1.577,20.35-1.352A25.135,25.135,0,0,1,89.32,24.8c3.83,1.277,5.181,3.9,4.205,7.81-1.352,5.482-2.854,10.964-4.355,16.37-.15.6-.9,1.577-1.352,1.577C83.387,50.853,79.182,50.777,74.526,50.777Z" transform="translate(-13.276 -5.797)" fill="red"/>
      <path id="Path_4" data-name="Path 4" d="M19.007,24.2c-1.126,4.28-2.1,8.11-3.079,11.865-.375,1.5-.826,3-1.2,4.506-.526,2.1.375,3.154,2.553,3.3,3.3.15,3.454.075,4.28-3.154,1.277-4.881,2.628-9.762,3.9-14.643a2.028,2.028,0,0,1,2.253-1.8H38.156c1.352,0,1.952.3,1.5,1.952-1.952,7.059-3.83,14.118-5.557,21.251-.676,2.778-2.778,2.929-4.731,3.154-5.257.526-10.438.976-15.694,1.051a30,30,0,0,1-7.735-1.051c-4.355-1.126-6.984-3.9-5.482-9.462,1.277-4.956,2.628-9.912,3.9-14.868a2.259,2.259,0,0,1,2.628-2.028C10.822,24.275,14.727,24.2,19.007,24.2Z" transform="translate(-0.034 -6.027)" fill="red"/>
      <path id="Path_5" data-name="Path 5" d="M133.816,8c-.676,2.628-1.2,4.956-1.8,7.359-2.628,9.837-5.257,19.674-7.81,29.587-.375,1.577-1.051,2.178-2.7,2.1-3.454-.15-6.833-.075-10.288,0-1.427,0-1.652-.526-1.352-1.727,3.154-11.79,6.233-23.654,9.387-35.444.15-.676.9-1.652,1.427-1.727C124.955,8,129.236,8,133.816,8Z" transform="translate(-27.359 -1.993)" fill="red"/>
      <path id="Path_6" data-name="Path 6" d="M158.508,24.5c-1.126,4.355-2.178,8.486-3.229,12.616-1.051,4.055-2.178,8.035-3.229,12.09a1.972,1.972,0,0,1-2.328,1.8c-3.454-.075-6.984-.075-10.438,0-1.352,0-1.8-.3-1.427-1.8,2.1-7.66,4.055-15.319,6.007-22.979a2.259,2.259,0,0,1,2.628-2.028c3.379.075,6.758,0,10.063,0C157.157,24.273,157.682,24.348,158.508,24.5Z" transform="translate(-34.33 -6.025)" fill="red"/>
      <g id="Group_35" data-name="Group 35" transform="translate(112.263 0)">
        <path id="Path_7" data-name="Path 7" d="M229.053,11.79H218.089c-2.628,0-3.154-.826-2.478-3.379.526-1.8,1.051-3.68,1.577-5.482C217.864.826,218.84,0,220.943,0h22.678c2.178,0,2.854.976,2.253,3.079-.526,1.952-1.126,3.9-1.727,5.857a3.442,3.442,0,0,1-3.83,2.854Z" transform="translate(-165.924 0)"/>
        <path id="Path_8" data-name="Path 8" d="M187.712,12.886H179.6c-1.877,0-2.4-.676-1.952-2.478.3-1.2.6-2.4.976-3.6A2.937,2.937,0,0,1,181.7,4.4h16.521c1.877,0,2.328.6,1.877,2.4-.3,1.277-.676,2.553-.976,3.83a2.89,2.89,0,0,1-3.154,2.328C193.194,12.886,190.491,12.886,187.712,12.886Z" transform="translate(-156.498 -1.096)"/>
        <path id="Path_9" data-name="Path 9" d="M157.843,7.693h4.881c1.352,0,2.253.375,1.652,2.1-.3.751-.225,1.652-.676,2.178a3.729,3.729,0,0,1-2.253,1.652c-3.379.15-6.833.075-10.288.075q-1.915,0-1.577-1.8c.826-3.83,1.051-4.355,4.43-4.205C155.365,7.768,156.642,7.693,157.843,7.693Z" transform="translate(-149.533 -1.91)"/>
      </g>
    </g>
    <path id="Path_2954" data-name="Path 2954" d="M328.787,97.558H238.064c-21.748,0-26.1-6.835-20.505-27.962,4.349-14.913,8.7-30.448,13.049-45.361C236.2,6.835,244.278,0,261.677,0H449.335c18.021,0,23.613,8.078,18.642,25.477-4.35,16.156-9.321,32.312-14.292,48.468-4.971,16.777-13.67,23.613-31.69,23.613Z" transform="translate(348.719 2653)" fill="none" stroke="red" stroke-width="2"/>
  </g>
</svg>
