<svg xmlns="http://www.w3.org/2000/svg" width="28" height="28" viewBox="0 0 28 28">
  <g id="Group_355" data-name="Group 355" transform="translate(-1514 -46)">
    <g id="Ellipse_67" data-name="Ellipse 67" transform="translate(1515 47)" fill="#fff" stroke="#fff" stroke-miterlimit="10" stroke-width="1">
      <circle cx="13" cy="13" r="13" stroke="none"/>
      <circle cx="13" cy="13" r="13.5" fill="none"/>
    </g>
    <g id="Login" transform="translate(1517 49)">
      <path id="Path_5065" data-name="Path 5065" d="M19.83,12.443c.106,1.427.686.809.792,1.437a3.11,3.11,0,0,0,1.687,2.058,2.606,2.606,0,0,0,1.029.233h0a2.623,2.623,0,0,0,1.029-.233,3.11,3.11,0,0,0,1.687-2.058c.117-.628.686,0,.792-1.437,0-.569-.309-.71-.309-.71s.158-.844.219-1.492c.075-.806-.473-2.891-3.392-2.891h-.048c-2.922,0-3.467,2.085-3.392,2.891.062.648.219,1.492.219,1.492s-.309.141-.309.71Zm0-.058" transform="translate(-12.373 -3.172)" fill="red"/>
      <path id="Path_5066" data-name="Path 5066" d="M21.972,37.646c-1.481-.751-3.632-1.687-3.735-1.715h0a.586.586,0,0,0-.737.343h0c-.384.916-1.087,2.551-1.523,3.337L15.871,37.4s.655-1.372.727-1.509a.339.339,0,0,0-.3-.549H14.356a.343.343,0,0,0-.3.566c.072.127.73,1.509.73,1.509l-.106,2.209c-.418-.8-1.139-2.438-1.523-3.354h0a.58.58,0,0,0-.545-.364.614.614,0,0,0-.2.031h0c-.106.031-2.253.967-3.738,1.715C8.011,38,7.61,38.41,7.61,38.849v.984l3.172,2.483,2.229.84,2.689.364,4.39-1.214,2.97-2.524v-.943c0-.439-.4-.857-1.07-1.193Zm-.024.137" transform="translate(-4.343 -21.565)" fill="red"/>
      <g id="Ellipse_66" data-name="Ellipse 66" transform="translate(1 1)" fill="none" stroke="red" stroke-miterlimit="10" stroke-width="1">
        <circle cx="10" cy="10" r="10" stroke="none"/>
        <circle cx="10" cy="10" r="10.5" fill="none"/>
      </g>
    </g>
  </g>
</svg>
