<svg xmlns="http://www.w3.org/2000/svg" width="63" height="41" viewBox="0 0 63 41">
  <g id="Group_307" data-name="Group 307" transform="translate(-11916 -1566)">
    <g id="Group_253" data-name="Group 253" transform="translate(11916 1566)">
      <g id="Rectangle_1669" data-name="Rectangle 1669" fill="#fff" stroke="#000" stroke-width="0.5">
        <rect width="63" height="41" rx="3" stroke="none"/>
        <rect x="0.25" y="0.25" width="62.5" height="40.5" rx="2.75" fill="none"/>
      </g>
      <path id="Path_4897" data-name="Path 4897" d="M20.767,13.928a3.718,3.718,0,0,0,.878-2.693,3.78,3.78,0,0,0-2.484,1.279,3.51,3.51,0,0,0-.892,2.61A3.122,3.122,0,0,0,20.767,13.928ZM23.21,20.2a3.825,3.825,0,0,1,1.825-3.216,3.95,3.95,0,0,0-3.085-1.668c-1.314-.13-2.566.774-3.23.774s-1.692-.753-2.784-.73a4.127,4.127,0,0,0-3.49,2.114c-1.484,2.588-.377,6.409,1.072,8.5.709,1.025,1.553,2.176,2.664,2.134,1.07-.042,1.471-.692,2.764-.692s1.655.69,2.781.671c1.15-.025,1.879-1.046,2.584-2.076a9.187,9.187,0,0,0,1.163-2.4A3.743,3.743,0,0,1,23.21,20.2ZM36.9,13.927a4.3,4.3,0,0,0-1.643-.956,7.459,7.459,0,0,0-2.34-.329,15.307,15.307,0,0,0-1.72.089q-.714.08-1.423.2l-.139.024V27.978H31V21.649a9.412,9.412,0,0,0,1.574.121,7.625,7.625,0,0,0,2.162-.294,4.831,4.831,0,0,0,1.733-.9,4.372,4.372,0,0,0,1.157-1.5,4.853,4.853,0,0,0,.423-2.082,4.7,4.7,0,0,0-.3-1.741A3.984,3.984,0,0,0,36.9,13.927Zm-1.26,5.738a4.5,4.5,0,0,1-2.965.889c-.348,0-.677-.015-.979-.043A4.591,4.591,0,0,1,31,20.4V14.007c.181-.033.406-.065.669-.093a11.517,11.517,0,0,1,1.2-.054,5.706,5.706,0,0,1,1.567.2,3.608,3.608,0,0,1,1.2.59,2.554,2.554,0,0,1,.767.986,3.5,3.5,0,0,1,.272,1.435,3.214,3.214,0,0,1-1.045,2.59Zm10.614,6.906c-.015-.425-.021-.852-.021-1.277V21.118a7.87,7.87,0,0,0-.148-1.5,3.81,3.81,0,0,0-.568-1.4,3.181,3.181,0,0,0-1.157-1.027,3.979,3.979,0,0,0-1.887-.4,6.016,6.016,0,0,0-1.617.216,5.136,5.136,0,0,0-1.513.719l-.111.077.463,1.084.168-.113a4.483,4.483,0,0,1,1.187-.565,4.437,4.437,0,0,1,1.315-.2,2.555,2.555,0,0,1,1.354.308,2.05,2.05,0,0,1,.741.762,2.9,2.9,0,0,1,.326.978,6.615,6.615,0,0,1,.077.944v.121a8.7,8.7,0,0,0-4.675,1.008,3.408,3.408,0,0,0-1.667,3.014,3.319,3.319,0,0,0,.2,1.113,2.876,2.876,0,0,0,.6.993,2.936,2.936,0,0,0,1.018.7,3.563,3.563,0,0,0,1.425.267,3.991,3.991,0,0,0,2.155-.589,4.143,4.143,0,0,0,.747-.586q.137-.138.261-.287h.053l.126,1.219h1.322l-.037-.2a8.418,8.418,0,0,1-.13-1.212Zm-1.393-2.139a2.37,2.37,0,0,1-.1.588,3,3,0,0,1-.369.734,2.818,2.818,0,0,1-1.436,1.084,3.355,3.355,0,0,1-1.1.168,2.177,2.177,0,0,1-.723-.123,1.744,1.744,0,0,1-.608-.364,1.811,1.811,0,0,1-.427-.618,2.314,2.314,0,0,1-.162-.917A2.06,2.06,0,0,1,40.4,23.57a3.078,3.078,0,0,1,1.223-.829,6.273,6.273,0,0,1,1.652-.377,15.048,15.048,0,0,1,1.582-.069Zm10.7-7.392L53,24c-.16.42-.309.844-.445,1.256-.066.206-.129.4-.191.586h-.048q-.1-.3-.2-.608c-.133-.408-.276-.809-.422-1.19l-2.737-7H47.5l3.916,10.066a1.155,1.155,0,0,1,.118.4,1.534,1.534,0,0,1-.12.4,7.3,7.3,0,0,1-.831,1.544,9.151,9.151,0,0,1-.857,1.03,4.681,4.681,0,0,1-.917.726,8.77,8.77,0,0,1-.867.455l-.148.066.477,1.159.151-.056c.124-.047.357-.153.711-.326a5.418,5.418,0,0,0,1.174-.832,6.074,6.074,0,0,0,.988-1.113,13.645,13.645,0,0,0,.862-1.443c.281-.54.561-1.154.835-1.827s.568-1.432.872-2.244l3.162-8.007Z" transform="translate(-1.985 -1.682)"/>
    </g>
  </g>
</svg>
