<svg xmlns="http://www.w3.org/2000/svg" width="22.22" height="20.501" viewBox="0 0 22.22 20.501"><defs><style>.a{fill:#fff;stroke:#fff;stroke-linecap:round;stroke-linejoin:round;stroke-miterlimit:10;stroke-width:0.5px;}</style></defs><g transform="translate(-1.95 -1.745)"><path class="a" d="M15.28,14.561c-.1.447-.207.826-.31,1.17a.456.456,0,0,1-.344.207H3.921a1.338,1.338,0,0,0-.516.069.588.588,0,0,0-.379.688.622.622,0,0,0,.551.551H15.142c.654,0,.757-.1.929-.723.413-1.618.861-3.27,1.274-4.888.688-2.547,1.377-5.06,2.065-7.573.172-.62.31-.723.964-.723h2.754c.516,0,.792-.241.792-.654s-.31-.654-.792-.654C22.2,2,21.2,2,20.237,2a1.926,1.926,0,0,0-1.962,1.515c-.757,2.754-1.48,5.507-2.2,8.261-.1.413-.172.861-.31,1.274a.432.432,0,0,1-.379.207c-.516.034-1.067,0-1.618,0H8.327c-.688,0-1.342-.034-2.031-.034a.447.447,0,0,1-.482-.31C5.057,10.637,4.3,8.365,3.577,6.094V5.921h.379l10.911.034h.31a.6.6,0,0,0,.551-.585.63.63,0,0,0-.413-.654,2.014,2.014,0,0,0-.447-.069c-3.717,0-7.435,0-11.187-.034A1.414,1.414,0,0,0,2.2,5.921a1.949,1.949,0,0,0,.1.62c.688,2,1.342,4.027,2,6.024l.241.723a1.735,1.735,0,0,0,1.721,1.239l9.018.034Z" transform="translate(0 0)"/><path class="a" d="M30.1,49.569a2.169,2.169,0,1,1,2.169,2.169A2.2,2.2,0,0,1,30.1,49.569Zm2.2.861a.861.861,0,0,0,0-1.721h0a.852.852,0,0,0-.861.861A.832.832,0,0,0,32.3,50.429Z" transform="translate(-18.297 -29.775)"/><path class="a" d="M8.463,47.4A2.186,2.186,0,1,1,8.5,51.771,2.188,2.188,0,0,1,8.463,47.4Zm.861,2.2a.861.861,0,1,0-.895.826h0A.877.877,0,0,0,9.324,49.6Z" transform="translate(-2.753 -29.775)"/></g></svg>