<svg xmlns="http://www.w3.org/2000/svg" width="22.942" height="22" viewBox="0 0 22.942 22">
  <defs>
    <style>
      .cls-1 {
        fill: red;
      }
    </style>
  </defs>
  <g id="substitute_" data-name="substitute " transform="translate(0 -0.06)">
    <path id="Path_4946" data-name="Path 4946" class="cls-1" d="M38.486,28.047l2.229,2.212a.384.384,0,0,1-.29.674H39.6a.388.388,0,0,0-.384.358,7.029,7.029,0,0,1-2.86,5.371,6.82,6.82,0,0,1-3.768,1.364.384.384,0,0,1-.426-.384V36.474a.388.388,0,0,1,.354-.384,5.115,5.115,0,0,0,3.709-2.025,4.889,4.889,0,0,0,1.023-2.707.384.384,0,0,0-.384-.426h-.934a.384.384,0,0,1-.269-.656l2.255-2.246a.384.384,0,0,1,.571.017Z" transform="translate(-18.451 -15.978)"/>
    <path id="Path_4947" data-name="Path 4947" class="cls-1" d="M3.112,6.8A7.14,7.14,0,0,1,9.723.079a.426.426,0,0,1,.452.426V1.592a.426.426,0,0,1-.379.426,5.115,5.115,0,0,0-3.726,2.1,4.864,4.864,0,0,0-.934,2.6.426.426,0,0,0,.426.426H6.3a.426.426,0,0,1,.311.72L4.54,10.079a.426.426,0,0,1-.61,0L1.658,7.939A.426.426,0,0,1,1.952,7.2h.733A.426.426,0,0,0,3.112,6.8Z" transform="translate(-0.874 -0.01)"/>
    <path id="Path_4948" data-name="Path 4948" class="cls-1" d="M9.881,29.059A1.142,1.142,0,0,1,11.019,30.2v5.35a1.142,1.142,0,0,1-1.138,1.138H2.417a1.142,1.142,0,0,1-1.138-1.138V30.2a1.142,1.142,0,0,1,1.138-1.138H9.881m0-1.279H2.417A2.421,2.421,0,0,0,0,30.2v5.35a2.421,2.421,0,0,0,2.417,2.417H9.881A2.421,2.421,0,0,0,12.3,35.547V30.2A2.421,2.421,0,0,0,9.881,27.78Z" transform="translate(0 -15.904)"/>
    <path id="Path_4949" data-name="Path 4949" class="cls-1" d="M34.868,1.339a1.138,1.138,0,0,1,1.138,1.138V7.81a1.138,1.138,0,0,1-1.138,1.138H27.4A1.134,1.134,0,0,1,26.279,7.81V2.477a1.134,1.134,0,0,1,1.134-1.138h7.456m0-1.279H27.4A2.421,2.421,0,0,0,25,2.477V7.81a2.421,2.421,0,0,0,2.413,2.417h7.456A2.421,2.421,0,0,0,37.285,7.81V2.477A2.421,2.421,0,0,0,34.868.06Z" transform="translate(-14.343)"/>
  </g>
</svg>
