<svg xmlns="http://www.w3.org/2000/svg" width="26.358" height="26.358" viewBox="0 0 26.358 26.358">
  <defs>
    <style>
      .cls-1 {
        fill: red;
      }
    </style>
  </defs>
  <path id="Path_4995" data-name="Path 4995" class="cls-1" d="M26.358,13.176c0-2.282-3.331-4.2-8.22-4.967C17.373,3.352,15.458,0,13.176,0S8.98,3.357,8.209,8.22C3.242,8.98,0,10.926,0,13.176s3.357,4.2,8.214,4.962c.766,4.862,2.68,8.22,4.962,8.22a2.77,2.77,0,0,0,1.768-.687.526.526,0,0,0-.666-.813,1.747,1.747,0,0,1-1.1.451c-1.5,0-3.147-2.717-3.871-7.013a32.461,32.461,0,0,0,3.871.226,32.489,32.489,0,0,0,3.871-.226,22.353,22.353,0,0,1-.483,2.187L15.9,19.408a.525.525,0,0,0-.892.551l1.28,2.056.037.042.042.047.063.052.047.031.084.037H16.6a.765.765,0,0,0,.341-.047l2.429-1.133a.525.525,0,1,0-.462-.939l-1.322.65a24.022,24.022,0,0,0,.525-2.591C23,17.373,26.358,15.458,26.358,13.176ZM18.3,9.305c4.322.75,7.013,2.381,7.013,3.871s-2.722,3.147-7.018,3.871h-.005a32.481,32.481,0,0,0,.236-3.871A32.461,32.461,0,0,0,18.3,9.305ZM8.062,17.048H8.057c-4.291-.724-7.008-2.371-7.008-3.871,0-1.626,2.864-3.147,7.013-3.876A33.224,33.224,0,0,0,8.062,17.048Zm9.153.163H17.21a30.813,30.813,0,0,1-4.039.262,30.8,30.8,0,0,1-4.034-.262,31.474,31.474,0,0,1,0-8.073l.656-.079a.527.527,0,1,0-.11-1.049l-.378.047c.724-4.291,2.371-7.008,3.871-7.008s3.147,2.717,3.871,7.013c-.656-.079-1.332-.136-2.035-.173l.813-.818a.525.525,0,0,0-.745-.74l-1.7,1.72a.478.478,0,0,0-.042.068.3.3,0,0,0-.084.178.527.527,0,0,0,0,.1.527.527,0,0,0,0,.1.528.528,0,0,0,0,.094.521.521,0,0,0,.052.094.525.525,0,0,0,.037.068l1.7,2.072a.525.525,0,1,0,.849-.616.518.518,0,0,0-.042-.05l-1-1.233q1.238.063,2.36.215a30.9,30.9,0,0,1,.262,4.039A31.311,31.311,0,0,1,17.215,17.21Z" transform="translate(0)"/>
</svg>
