<svg xmlns="http://www.w3.org/2000/svg" width="27.224" height="22.81" viewBox="0 0 27.224 22.81">
  <defs>
    <style>
      .cls-1 {
        fill: red;
      }
    </style>
  </defs>
  <g id="Icone" transform="translate(-1.295 -3.897)">
    <path id="Path_4912" data-name="Path 4912" class="cls-1" d="M36.64,22.758V33.573a.544.544,0,1,1-1.086.069V11.932a.536.536,0,0,1,.587-.587.563.563,0,0,1,.5.474V22.758Z" transform="translate(-23.338 -7.445)"/>
    <path id="Path_4913" data-name="Path 4913" class="cls-1" d="M42.963,26.23v8.981a.639.639,0,0,1-.474.642c-.216.072-.591-.227-.615-.488a.931.931,0,0,1,0-.137V17.243a.553.553,0,0,1,.32-.56.536.536,0,0,1,.752.5v2.852Z" transform="translate(-27.486 -10.921)"/>
    <path id="Path_4914" data-name="Path 4914" class="cls-1" d="M49.3,31.766V37.9a.526.526,0,0,1-.533.574.574.574,0,0,1-.553-.577V25.654a.57.57,0,0,1,.543-.584.56.56,0,0,1,.55.57C49.288,27.681,49.3,29.725,49.3,31.766Z" transform="translate(-31.646 -16.457)"/>
    <path id="Path_4915" data-name="Path 4915" class="cls-1" d="M29.221,33.156V27.831a.539.539,0,0,1,.526-.612.546.546,0,0,1,.563.6V38.553a.546.546,0,0,1-.567.615.539.539,0,0,1-.522-.57Z" transform="translate(-19.178 -17.867)"/>
    <path id="Path_4916" data-name="Path 4916" class="cls-1" d="M55.591,36.969V40.4a.577.577,0,0,1-.526.55.584.584,0,0,1-.57-.522V33.605a.557.557,0,0,1,.759-.57.471.471,0,0,1,.344.474Q55.588,35.241,55.591,36.969Z" transform="translate(-35.771 -21.66)"/>
    <path id="Path_4917" data-name="Path 4917" class="cls-1" d="M68.272,38.68v2.532a.512.512,0,0,1-.508.546.57.57,0,0,1-.574-.543V36.2a.6.6,0,0,1,.416-.577.522.522,0,0,1,.581.22.516.516,0,0,1,.086.285C68.276,36.976,68.272,37.828,68.272,38.68Z" transform="translate(-44.106 -23.371)"/>
    <path id="Path_4918" data-name="Path 4918" class="cls-1" d="M61.931,40.323v1.625a.57.57,0,0,1-.495.553.587.587,0,0,1-.587-.533v-3.3a.543.543,0,1,1,1.082.027Z" transform="translate(-39.943 -25.011)"/>
    <rect id="Rectangle_2028" data-name="Rectangle 2028" class="cls-1" width="1.089" height="3.216" rx="0.545" transform="translate(25.252 13.681)"/>
    <rect id="Rectangle_2029" data-name="Rectangle 2029" class="cls-1" width="1.089" height="2.144" rx="0.545" transform="translate(27.43 14.22)"/>
    <path id="Path_4919" data-name="Path 4919" class="cls-1" d="M16.438,38.679v2.532a.512.512,0,0,0,.508.546.57.57,0,0,0,.574-.543V36.2a.594.594,0,0,0-.412-.577.519.519,0,0,0-.581.22.488.488,0,0,0-.086.285C16.434,36.975,16.438,37.827,16.438,38.679Z" transform="translate(-10.79 -23.37)"/>
    <path id="Path_4920" data-name="Path 4920" class="cls-1" d="M22.76,40.408v1.625a.57.57,0,0,0,.491.553.591.591,0,0,0,.591-.533v-3.3a.54.54,0,0,0-1.079.027Z" transform="translate(-14.94 -25.095)"/>
    <rect id="Rectangle_2030" data-name="Rectangle 2030" class="cls-1" width="1.089" height="3.216" rx="0.545" transform="translate(4.563 16.9) rotate(180)"/>
    <rect id="Rectangle_2031" data-name="Rectangle 2031" class="cls-1" width="1.089" height="2.144" rx="0.545" transform="translate(2.384 16.361) rotate(180)"/>
  </g>
</svg>
