<svg xmlns="http://www.w3.org/2000/svg" width="24.983" height="25" viewBox="0 0 24.983 25">
  <path id="Facebook" d="M20.758,0H4.24A4.255,4.255,0,0,0,0,4.24V20.756A4.254,4.254,0,0,0,4.24,25h9.113V15.338c-.031-.061.09-.07-.339-.063l-2.9-.01.02-3.721h3.223c-.032-2.62-.224-4.954,1.34-6.487a4.681,4.681,0,0,1,2.673-1.223,18.239,18.239,0,0,1,3.731.1V7.271a17.132,17.132,0,0,1-1.974.024c-1.716.01-1.881.778-1.879,2.2,0,.678-.01,1.369,0,2.047h3.711c-.012.5-.139,1.157-.2,1.669-.07.556-.146,1.1-.215,1.664s.187.424-1.413.424c-.626,0-1.257.008-1.883,0V25h3.5a4.254,4.254,0,0,0,4.24-4.24V4.24A4.254,4.254,0,0,0,20.758,0Z" fill-rule="evenodd"/>
</svg>
