<svg xmlns="http://www.w3.org/2000/svg" width="63" height="41" viewBox="0 0 63 41">
  <g id="Group_310" data-name="Group 310" transform="translate(-12149 -1566)">
    <g id="Group_250" data-name="Group 250" transform="translate(12148.571 1566)">
      <g id="Rectangle_1672" data-name="Rectangle 1672" transform="translate(0.429)" fill="#fff" stroke="#000" stroke-width="0.5">
        <rect width="63" height="41" rx="3" stroke="none"/>
        <rect x="0.25" y="0.25" width="62.5" height="40.5" rx="2.75" fill="none"/>
      </g>
      <g id="GPay-Light-themed-buttons" transform="translate(6.506 11.385)">
        <g id="GPAY---SVGs" transform="translate(0 0)">
          <g id="GPay-Brand-Mark" transform="translate(0 0)">
            <g id="GPay" transform="translate(0 0)">
              <g id="Pay" transform="translate(21.989 1.158)">
                <path id="Fill-1" d="M-212.3-210.347v5.055h3.118a2.464,2.464,0,0,0,1.843-.748,2.428,2.428,0,0,0,.748-1.78,2.408,2.408,0,0,0-.748-1.76,2.432,2.432,0,0,0-1.843-.768H-212.3Zm0,6.835v5.864h-1.862v-14.479h4.94a4.464,4.464,0,0,1,3.2,1.254,4.024,4.024,0,0,1,1.337,3.053,4,4,0,0,1-1.337,3.074,4.456,4.456,0,0,1-3.2,1.233H-212.3Z" transform="translate(214.166 212.127)" fill="#5f6368"/>
                <path id="Fill-3" d="M-145.574-174.912a1.484,1.484,0,0,0,.618,1.214,2.277,2.277,0,0,0,1.447.485,2.968,2.968,0,0,0,2.094-.869,2.721,2.721,0,0,0,.921-2.041,3.822,3.822,0,0,0-2.429-.688,3.156,3.156,0,0,0-1.892.546,1.62,1.62,0,0,0-.759,1.353m2.41-7.2a4.619,4.619,0,0,1,3.26,1.1,3.908,3.908,0,0,1,1.193,3.023v6.107h-1.781v-1.375h-.081a3.553,3.553,0,0,1-3.076,1.7,4,4,0,0,1-2.743-.97,3.1,3.1,0,0,1-1.1-2.428,2.941,2.941,0,0,1,1.163-2.445,4.913,4.913,0,0,1,3.107-.91,5.508,5.508,0,0,1,2.732.606v-.425a2.116,2.116,0,0,0-.769-1.647,2.637,2.637,0,0,0-1.8-.677,2.851,2.851,0,0,0-2.469,1.315l-1.641-1.032a4.576,4.576,0,0,1,4.009-1.941" transform="translate(156.929 186.357)" fill="#5f6368"/>
                <g id="Group-7" transform="translate(18.521 4.57)">
                  <path id="Fill-5" d="M-88.423-183.583l-6.216,14.276h-1.922l2.308-4.995-4.089-9.281h2.025l2.955,7.118h.04l2.874-7.118Z" transform="translate(98.342 183.583)" fill="#5f6368"/>
                </g>
              </g>
              <g id="G" transform="translate(0 0)">
                <path id="Fill-8" d="M-285.11-169.615a9.9,9.9,0,0,0-.143-1.692h-7.854v3.2h4.5a3.849,3.849,0,0,1-1.663,2.528v2.081h2.685a8.134,8.134,0,0,0,2.478-6.121" transform="translate(301.436 178.124)" fill="#4285f4"/>
                <path id="Fill-10" d="M-338.262-142.706a7.973,7.973,0,0,0,5.52-2.009l-2.685-2.081a5.023,5.023,0,0,1-2.835.8,4.981,4.981,0,0,1-4.676-3.434H-345.7v2.143a8.33,8.33,0,0,0,7.441,4.585" transform="translate(346.59 159.346)" fill="#34a853"/>
                <path id="Fill-12" d="M-348.319-181.764a5,5,0,0,1-.261-1.592,5,5,0,0,1,.261-1.592v-2.143h-2.766a8.271,8.271,0,0,0-.887,3.736,8.267,8.267,0,0,0,.887,3.735Z" transform="translate(351.972 191.676)" fill="#fabb05"/>
                <path id="Fill-14" d="M-338.262-216.2a4.523,4.523,0,0,1,3.2,1.248h0l2.377-2.375a8.007,8.007,0,0,0-5.572-2.167,8.329,8.329,0,0,0-7.441,4.584l2.766,2.143a4.981,4.981,0,0,1,4.676-3.434" transform="translate(346.59 219.489)" fill="#e94235"/>
              </g>
            </g>
          </g>
        </g>
      </g>
    </g>
  </g>
</svg>
