<svg id="Instagram" xmlns="http://www.w3.org/2000/svg" width="24.997" height="24.997" viewBox="0 0 24.997 24.997">
  <path id="Path_4865" data-name="Path 4865" d="M37.324,24.41H28.216a3.809,3.809,0,0,0-3.806,3.806v9.108a3.809,3.809,0,0,0,3.806,3.808h9.108a3.809,3.809,0,0,0,3.808-3.808V28.216A3.809,3.809,0,0,0,37.324,24.41Zm-4.554,13.6a5.239,5.239,0,1,1,5.239-5.239,5.239,5.239,0,0,1-5.239,5.239Zm6.392-9.747a1.323,1.323,0,1,1,.388-.936A1.323,1.323,0,0,1,39.162,28.262Z" transform="translate(-20.27 -20.27)" fill-rule="evenodd"/>
  <path id="Path_4866" data-name="Path 4866" d="M56.926,53.45a3.435,3.435,0,1,0,3.443,3.435A3.435,3.435,0,0,0,56.926,53.45Z" transform="translate(-44.426 -44.385)" fill-rule="evenodd"/>
  <path id="Path_4867" data-name="Path 4867" d="M20.758,0H4.24A4.255,4.255,0,0,0,0,4.24V20.756A4.254,4.254,0,0,0,4.24,25H20.756A4.254,4.254,0,0,0,25,20.756V4.24A4.254,4.254,0,0,0,20.758,0Zm1.906,17.054a5.617,5.617,0,0,1-5.611,5.611H7.946a5.617,5.617,0,0,1-5.611-5.611V7.946A5.617,5.617,0,0,1,7.946,2.335h9.108a5.617,5.617,0,0,1,5.611,5.611Z" fill-rule="evenodd"/>
</svg>
