<svg xmlns="http://www.w3.org/2000/svg" width="24.997" height="24.997" viewBox="0 0 24.997 24.997">
  <path id="In" d="M20.758,0H4.24A4.255,4.255,0,0,0,0,4.24V20.756A4.254,4.254,0,0,0,4.24,25H20.756A4.254,4.254,0,0,0,25,20.756V4.24A4.254,4.254,0,0,0,20.758,0ZM8.362,19.6H5.393V9.978H8.362ZM8.141,8.024A1.766,1.766,0,0,1,6.9,8.455a1.733,1.733,0,0,1-1.231-.446A1.437,1.437,0,0,1,5.2,6.915a1.389,1.389,0,0,1,.478-1.091A1.8,1.8,0,0,1,6.9,5.4a1.793,1.793,0,0,1,1.236.422,1.4,1.4,0,0,1,.473,1.091A1.435,1.435,0,0,1,8.141,8.024ZM20.161,19.6H17.193V14.247q0-2.237-1.6-2.235a1.581,1.581,0,0,0-1.269.592,2.251,2.251,0,0,0-.5,1.5v5.487H10.855V9.978h2.968V11.5h.037a3.417,3.417,0,0,1,3.1-1.762q3.194,0,3.194,3.965Z"/>
</svg>
