<svg xmlns="http://www.w3.org/2000/svg" width="15" height="9" viewBox="0 0 15 9">
  <g id="Mail_full_color" data-name="Mail full color" transform="translate(0 -59.013)">
    <g id="Group_359" data-name="Group 359" transform="translate(0 59.013)">
      <path id="Path_5068" data-name="Path 5068" d="M30.145,327.024a1.53,1.53,0,0,0,.878-.253l-4.25-3.245-.294.161q-.477.268-.774.419a5.448,5.448,0,0,1-.791.307,3.055,3.055,0,0,1-.921.157h-.017a3.054,3.054,0,0,1-.921-.157,5.431,5.431,0,0,1-.791-.307q-.3-.15-.774-.419l-.293-.162-4.251,3.246a1.53,1.53,0,0,0,.878.253Z" transform="translate(-16.485 -318.024)" fill="red"/>
      <path id="Path_5069" data-name="Path 5069" d="M.846,199.111A4.329,4.329,0,0,1,0,198.555v4.938l3.746-2.86Q2.622,200.033.846,199.111Z" transform="translate(0 -195.653)" fill="red"/>
      <path id="Path_5070" data-name="Path 5070" d="M416.216,199.111q-1.71.884-2.907,1.522l3.744,2.859v-4.938A4.488,4.488,0,0,1,416.216,199.111Z" transform="translate(-402.053 -195.653)" fill="red"/>
      <path id="Path_5071" data-name="Path 5071" d="M13.666,59.013H1.345a1.378,1.378,0,0,0-.992.332,1.1,1.1,0,0,0-.347.831,1.319,1.319,0,0,0,.46.873,3.854,3.854,0,0,0,.979.738q.285.153,1.716.911l1.348.715.845.451.125.068.231.127q.272.15.452.243t.435.208a2.957,2.957,0,0,0,.481.173,1.707,1.707,0,0,0,.418.058h.017a1.707,1.707,0,0,0,.419-.058,2.951,2.951,0,0,0,.481-.173q.255-.115.435-.208T9.3,64.06l.231-.127.125-.068.847-.45,3.07-1.628A3.655,3.655,0,0,0,14.6,61a1.439,1.439,0,0,0,.41-.965.885.885,0,0,0-.4-.722A1.519,1.519,0,0,0,13.666,59.013Z" transform="translate(-0.006 -59.013)" fill="red"/>
    </g>
  </g>
</svg>
