<svg xmlns="http://www.w3.org/2000/svg" width="63" height="41" viewBox="0 0 63 41">
  <g id="Group_308" data-name="Group 308" transform="translate(-11994 -1566)">
    <g id="Group_252" data-name="Group 252" transform="translate(11994.065 1566)">
      <rect id="Rectangle_1670" data-name="Rectangle 1670" width="63" height="41" rx="3" transform="translate(-0.065)" fill="red"/>
      <g id="Master_Card_преобразованный_" data-name="Master_Card [преобразованный]" transform="translate(11.384 8.132)">
        <g id="Group_247" data-name="Group 247" transform="translate(0 0)">
          <g id="Group_242" data-name="Group 242" transform="translate(0 0)">
            <g id="Group_241" data-name="Group 241">
              <path id="Path_4902" data-name="Path 4902" d="M264.053,370.32a12.2,12.2,0,1,1-12.2-12.2A12.2,12.2,0,0,1,264.053,370.32Z" transform="translate(-239.658 -358.123)" fill="#e40520"/>
              <g id="Group_240" data-name="Group 240" transform="translate(16.65)">
                <path id="Path_4903" data-name="Path 4903" d="M310.388,358.123a12.153,12.153,0,0,0-8.189,3.157,12.443,12.443,0,0,0-1.231,1.291h2.464a12.431,12.431,0,0,1,.93,1.292h-4.324a12.261,12.261,0,0,0-.7,1.292h5.729a12.2,12.2,0,0,1,.516,1.291h-6.762a12.074,12.074,0,0,0-.355,1.292h7.471a12.274,12.274,0,0,1-.354,6.458h-6.763a12.264,12.264,0,0,0,.516,1.292h5.73a12.187,12.187,0,0,1-.7,1.292h-4.323a12.327,12.327,0,0,0,.93,1.291h2.464a12.223,12.223,0,0,1-1.232,1.292,12.2,12.2,0,1,0,8.189-21.239Z" transform="translate(-298.464 -358.123)" fill="#fab31e"/>
              </g>
            </g>
            <path id="Path_4904" data-name="Path 4904" d="M377.917,424.221a.394.394,0,1,1,.394.394A.394.394,0,0,1,377.917,424.221Zm.394.3a.3.3,0,1,0-.3-.3A.3.3,0,0,0,378.311,424.52Zm-.054-.127h-.081v-.346h.146a.162.162,0,0,1,.089.017.105.105,0,0,1,.044.087.093.093,0,0,1-.06.089l.064.153h-.089l-.053-.137h-.059Zm0-.2h.045a.109.109,0,0,0,.049-.007.048.048,0,0,0,.02-.04.045.045,0,0,0-.02-.035.112.112,0,0,0-.052-.007h-.043Z" transform="translate(-338.772 -405.224)" fill="#fab31e"/>
          </g>
          <g id="Group_246" data-name="Group 246" transform="translate(0.779 9.066)">
            <g id="Group_243" data-name="Group 243" transform="translate(0 0.165)">
              <path id="Path_4905" data-name="Path 4905" d="M265.827,398.573a2.227,2.227,0,0,0-.3-.021c-.75,0-1.13.258-1.13.766a.462.462,0,0,0,.474.512C265.415,399.831,265.8,399.317,265.827,398.573Zm.963,2.242h-1.1l.025-.521a1.662,1.662,0,0,1-1.388.608,1.238,1.238,0,0,1-1.209-1.374c0-1.225.856-1.94,2.325-1.94a4.528,4.528,0,0,1,.54.039,1.237,1.237,0,0,0,.052-.326c0-.333-.231-.458-.849-.458a4.425,4.425,0,0,0-1.4.227c.014-.084.183-1.131.183-1.131a5.263,5.263,0,0,1,1.585-.267c1.137,0,1.74.511,1.738,1.475a6.428,6.428,0,0,1-.107,1C267.071,398.872,266.824,400.434,266.791,400.815Z" transform="translate(-257.257 -394.272)" fill="#06326e"/>
              <path id="Path_4906" data-name="Path 4906" d="M247.719,398.174h-1.325l.759-4.756-1.694,4.756h-.9l-.112-4.729-.8,4.729h-1.24l1.035-6.187h1.9l.116,3.463,1.161-3.463h2.118Z" transform="translate(-242.409 -391.63)" fill="#06326e"/>
              <path id="Path_4907" data-name="Path 4907" d="M339.507,398.573a2.22,2.22,0,0,0-.295-.021c-.751,0-1.13.258-1.13.766a.462.462,0,0,0,.475.512C339.1,399.831,339.485,399.317,339.507,398.573Zm.964,2.242h-1.1l.025-.521a1.662,1.662,0,0,1-1.387.608,1.237,1.237,0,0,1-1.21-1.374c0-1.225.856-1.94,2.325-1.94a4.528,4.528,0,0,1,.54.039,1.237,1.237,0,0,0,.051-.326c0-.333-.23-.458-.849-.458a4.432,4.432,0,0,0-1.4.227c.014-.084.184-1.131.184-1.131a5.259,5.259,0,0,1,1.584-.267c1.138,0,1.74.511,1.739,1.475a6.414,6.414,0,0,1-.107,1C340.752,398.872,340.5,400.434,340.471,400.815Z" transform="translate(-310.077 -394.272)" fill="#06326e"/>
              <path id="Path_4908" data-name="Path 4908" d="M291.808,399.095a3.033,3.033,0,0,1-.951.163.969.969,0,0,1-1.046-1.105,11.574,11.574,0,0,1,.181-1.341c.077-.47.574-3.434.574-3.434h1.316l-.153.762h.795l-.179,1.209h-.8c-.153.957-.371,2.149-.373,2.307,0,.259.138.373.454.373a1.077,1.077,0,0,0,.357-.048Z" transform="translate(-276.39 -392.628)" fill="#06326e"/>
              <path id="Path_4909" data-name="Path 4909" d="M302.025,400.7a4.468,4.468,0,0,1-1.351.2,2,2,0,0,1-2.242-2.244c0-1.72.977-2.986,2.3-2.986a1.681,1.681,0,0,1,1.778,1.82,5.386,5.386,0,0,1-.163,1.238h-2.621c-.089.73.378,1.034,1.145,1.034a3.126,3.126,0,0,0,1.368-.316Zm-.74-2.983c.008-.1.139-.9-.613-.9-.419,0-.719.32-.841.9Z" transform="translate(-282.571 -394.272)" fill="#06326e"/>
              <path id="Path_4910" data-name="Path 4910" d="M277.618,397.374a1.469,1.469,0,0,0,1.008,1.4c.536.252.619.327.619.555,0,.313-.237.456-.76.456a3.72,3.72,0,0,1-1.187-.2s-.173,1.109-.182,1.162a6.162,6.162,0,0,0,1.378.149c1.4,0,2.042-.532,2.042-1.681a1.377,1.377,0,0,0-.933-1.4c-.555-.254-.619-.312-.619-.546,0-.272.22-.411.648-.411a7.342,7.342,0,0,1,.952.075l.188-1.167a8.926,8.926,0,0,0-1.165-.1C278.126,395.671,277.613,396.444,277.618,397.374Z" transform="translate(-267.29 -394.272)" fill="#06326e"/>
              <path id="Path_4911" data-name="Path 4911" d="M318.779,392.26a2.519,2.519,0,0,1,1.183.334l.217-1.343a3.89,3.89,0,0,0-1.456-.523,2.637,2.637,0,0,0-2.162,1.165c-.769-.254-1.085.26-1.472.773l-.344.08a2.528,2.528,0,0,0,.042-.506h-1.217c-.166,1.558-.46,3.135-.69,4.693l-.06.338h1.325c.221-1.437.342-2.356.416-2.979l.5-.276c.075-.277.308-.371.775-.359a5.67,5.67,0,0,0-.094,1.031c0,1.646.889,2.671,2.314,2.671a4.145,4.145,0,0,0,1.171-.181l.232-1.41a2.578,2.578,0,0,1-1.125.317c-.77,0-1.235-.569-1.235-1.507C317.1,393.215,317.79,392.26,318.779,392.26Z" transform="translate(-292.885 -390.728)" fill="#06326e"/>
              <path id="Path_4912" data-name="Path 4912" d="M357.59,391.986l-.294,1.788a1.655,1.655,0,0,0-1.264-.821,2.051,2.051,0,0,0-1.674,1.253,10.822,10.822,0,0,1-1.127-.311v.005a7.389,7.389,0,0,0,.059-.758h-1.217c-.165,1.558-.46,3.135-.69,4.693l-.061.339h1.325c.179-1.161.316-2.126.417-2.891.453-.409.68-.765,1.136-.742a4.317,4.317,0,0,0-.321,1.633c0,1.257.636,2.087,1.6,2.087a1.562,1.562,0,0,0,1.221-.555l-.063.468h1.253l1.008-6.187Zm-1.656,5.025c-.451,0-.678-.334-.678-.992,0-.989.426-1.69,1.027-1.69.455,0,.7.346.7.985C356.984,396.312,356.55,397.011,355.934,397.011Z" transform="translate(-320.484 -391.63)" fill="#06326e"/>
            </g>
            <g id="Group_245" data-name="Group 245" transform="translate(0.381)">
              <path id="Path_4913" data-name="Path 4913" d="M249.064,396.878H247.74l.759-4.756-1.694,4.756h-.9l-.111-4.728-.8,4.728h-1.24l1.036-6.187h1.9l.053,3.83,1.285-3.83h2.056Z" transform="translate(-243.754 -390.536)" fill="#fff"/>
              <path id="Path_4914" data-name="Path 4914" d="M267.174,397.277a2.215,2.215,0,0,0-.3-.02c-.751,0-1.131.257-1.131.765a.463.463,0,0,0,.475.513C266.762,398.535,267.151,398.022,267.174,397.277Zm.963,2.241h-1.1l.025-.521a1.663,1.663,0,0,1-1.388.608,1.238,1.238,0,0,1-1.21-1.375c0-1.226.856-1.939,2.325-1.939a4.418,4.418,0,0,1,.54.039,1.243,1.243,0,0,0,.052-.327c0-.333-.231-.457-.849-.457a4.4,4.4,0,0,0-1.4.226c.014-.083.184-1.131.184-1.131a5.273,5.273,0,0,1,1.585-.266c1.137,0,1.739.511,1.739,1.475a6.407,6.407,0,0,1-.107,1C268.418,397.575,268.171,399.139,268.137,399.519Z" transform="translate(-258.603 -393.177)" fill="#fff"/>
              <path id="Path_4915" data-name="Path 4915" d="M328.922,390.466l-.217,1.343a2.527,2.527,0,0,0-1.183-.334c-.989,0-1.682.956-1.682,2.318,0,.939.466,1.506,1.236,1.506a2.558,2.558,0,0,0,1.125-.318l-.233,1.41a4.14,4.14,0,0,1-1.17.181c-1.426,0-2.314-1.025-2.314-2.671,0-2.212,1.228-3.758,2.982-3.758A4.6,4.6,0,0,1,328.922,390.466Z" transform="translate(-301.627 -390.144)" fill="#fff"/>
              <path id="Path_4916" data-name="Path 4916" d="M340.853,397.277a2.2,2.2,0,0,0-.295-.02c-.75,0-1.13.257-1.13.765a.463.463,0,0,0,.474.513C340.442,398.535,340.831,398.022,340.853,397.277Zm.964,2.241h-1.1l.025-.521a1.664,1.664,0,0,1-1.387.608,1.237,1.237,0,0,1-1.209-1.375c0-1.226.855-1.939,2.324-1.939a4.4,4.4,0,0,1,.539.039,1.246,1.246,0,0,0,.052-.327c0-.333-.23-.457-.849-.457a4.4,4.4,0,0,0-1.4.226c.014-.083.183-1.131.183-1.131a5.276,5.276,0,0,1,1.585-.266c1.137,0,1.74.511,1.738,1.475a6.406,6.406,0,0,1-.107,1C342.1,397.575,341.851,399.139,341.817,399.519Z" transform="translate(-311.422 -393.177)" fill="#fff"/>
              <path id="Path_4917" data-name="Path 4917" d="M293.154,397.8a3.033,3.033,0,0,1-.951.164.969.969,0,0,1-1.047-1.1,11.639,11.639,0,0,1,.182-1.341c.076-.471.574-3.434.574-3.434h1.316l-.154.762h.675l-.18,1.209h-.678c-.153.958-.371,2.149-.374,2.307,0,.26.139.373.454.373a1.062,1.062,0,0,0,.357-.048Z" transform="translate(-277.735 -391.534)" fill="#fff"/>
              <path id="Path_4918" data-name="Path 4918" d="M303.373,399.4a4.51,4.51,0,0,1-1.351.2,2,2,0,0,1-2.241-2.245c0-1.72.977-2.987,2.3-2.987a1.681,1.681,0,0,1,1.779,1.822,5.451,5.451,0,0,1-.162,1.237H301.08c-.089.73.378,1.034,1.144,1.034a3.116,3.116,0,0,0,1.369-.317Zm-.74-2.984c.007-.105.139-.9-.613-.9-.419,0-.719.32-.841.9Z" transform="translate(-283.918 -393.176)" fill="#fff"/>
              <path id="Path_4919" data-name="Path 4919" d="M278.964,396.077a1.469,1.469,0,0,0,1.009,1.405c.536.252.619.327.619.555,0,.313-.236.455-.76.455a3.738,3.738,0,0,1-1.186-.2l-.182,1.161a6.147,6.147,0,0,0,1.378.149c1.4,0,2.043-.532,2.043-1.682a1.376,1.376,0,0,0-.933-1.4c-.555-.255-.619-.312-.619-.547,0-.272.22-.412.648-.412a7.35,7.35,0,0,1,.951.076l.189-1.167a9.02,9.02,0,0,0-1.165-.1C279.472,394.374,278.96,395.147,278.964,396.077Z" transform="translate(-268.636 -393.176)" fill="#fff"/>
              <path id="Path_4920" data-name="Path 4920" d="M365.707,396.878h-1.253l.062-.468a1.561,1.561,0,0,1-1.221.556c-.962,0-1.6-.83-1.6-2.088,0-1.673.987-3.084,2.154-3.084a1.493,1.493,0,0,1,1.265.686l.294-1.788h1.306Zm-1.954-1.162c.617,0,1.05-.7,1.05-1.7,0-.639-.246-.986-.7-.986-.6,0-1.027.7-1.027,1.69C363.075,395.383,363.3,395.716,363.753,395.716Z" transform="translate(-328.304 -390.537)" fill="#fff"/>
              <path id="Path_4921" data-name="Path 4921" d="M353.419,394.636c-.166,1.557-.46,3.134-.691,4.693l-.06.338h1.324c.474-3.077.588-3.677,1.331-3.6a4.933,4.933,0,0,1,.5-1.459c-.555-.116-.864.2-1.27.794a4.632,4.632,0,0,0,.08-.763Z" transform="translate(-321.832 -393.325)" fill="#fff"/>
              <path id="Path_4922" data-name="Path 4922" d="M314.917,394.636c-.167,1.557-.461,3.134-.691,4.693l-.06.338h1.325c.474-3.077.588-3.677,1.33-3.6a4.974,4.974,0,0,1,.5-1.459c-.554-.116-.864.2-1.27.794a4.546,4.546,0,0,0,.079-.763Z" transform="translate(-294.231 -393.325)" fill="#fff"/>
              <g id="Group_244" data-name="Group 244" transform="translate(37.985 5.553)">
                <path id="Path_4923" data-name="Path 4923" d="M377.915,410.152a.394.394,0,1,1,.394.394A.394.394,0,0,1,377.915,410.152Zm.394.3a.3.3,0,1,0-.3-.3A.3.3,0,0,0,378.309,410.452Zm-.053-.127h-.081v-.346h.147a.161.161,0,0,1,.088.018.1.1,0,0,1,.044.086.094.094,0,0,1-.06.09l.064.152h-.089l-.053-.137h-.059v.137Zm0-.2h.045a.1.1,0,0,0,.049-.006.047.047,0,0,0,.02-.04.045.045,0,0,0-.019-.036.116.116,0,0,0-.052-.006h-.043Z" transform="translate(-377.915 -409.758)" fill="#fff"/>
              </g>
            </g>
          </g>
        </g>
      </g>
    </g>
  </g>
</svg>
