<svg id="Group_215" data-name="Group 215" xmlns="http://www.w3.org/2000/svg" width="39.203" height="25.097" viewBox="0 0 39.203 25.097">
  <g id="Group_212" data-name="Group 212" transform="translate(0 0)">
    <g id="GPay-Light-themed-buttons" transform="translate(4.138 6.705)">
      <g id="GPAY---SVGs" transform="translate(0 0)">
        <g id="GPay-Brand-Mark" transform="translate(0 0)">
          <g id="GPay">
            <g id="Pay" transform="translate(13.516 0.712)">
              <path id="Fill-1" d="M-213.022-211.033v3.107h1.916a1.515,1.515,0,0,0,1.133-.46,1.492,1.492,0,0,0,.46-1.094,1.48,1.48,0,0,0-.46-1.082,1.5,1.5,0,0,0-1.133-.472h-1.916Zm0,4.2v3.6h-1.144v-8.9h3.036a2.744,2.744,0,0,1,1.965.771,2.474,2.474,0,0,1,.822,1.876,2.462,2.462,0,0,1-.822,1.889,2.739,2.739,0,0,1-1.965.758h-1.892Z" transform="translate(214.166 212.127)" fill="#fff"/>
              <path id="Fill-3" d="M-146.314-177.685a.912.912,0,0,0,.38.746,1.4,1.4,0,0,0,.89.3,1.824,1.824,0,0,0,1.287-.534,1.673,1.673,0,0,0,.566-1.254,2.349,2.349,0,0,0-1.493-.423,1.94,1.94,0,0,0-1.163.336,1,1,0,0,0-.467.832m1.481-4.424a2.839,2.839,0,0,1,2,.677,2.4,2.4,0,0,1,.734,1.858v3.754h-1.095v-.845h-.05a2.184,2.184,0,0,1-1.891,1.043,2.46,2.46,0,0,1-1.686-.6,1.9,1.9,0,0,1-.678-1.492,1.808,1.808,0,0,1,.715-1.5,3.019,3.019,0,0,1,1.91-.56,3.385,3.385,0,0,1,1.68.373v-.261a1.3,1.3,0,0,0-.473-1.013,1.621,1.621,0,0,0-1.107-.416,1.752,1.752,0,0,0-1.518.808l-1.008-.634a2.813,2.813,0,0,1,2.464-1.193" transform="translate(153.294 184.72)" fill="#fff"/>
              <g id="Group-7" transform="translate(11.384 2.809)">
                <path id="Fill-5" d="M-92.245-183.583l-3.821,8.774h-1.182l1.419-3.07-2.513-5.7H-97.1l1.816,4.375h.025l1.767-4.375Z" transform="translate(98.342 183.583)" fill="#fff"/>
              </g>
            </g>
            <g id="G">
              <path id="Fill-8" d="M-288.192-170.267a6.086,6.086,0,0,0-.088-1.04h-4.828v1.969h2.765a2.366,2.366,0,0,1-1.022,1.554v1.279h1.65a5,5,0,0,0,1.523-3.762" transform="translate(298.227 175.497)" fill="#fff"/>
              <path id="Fill-10" d="M-341.129-145.3a4.9,4.9,0,0,0,3.393-1.235l-1.65-1.279a3.087,3.087,0,0,1-1.743.49A3.062,3.062,0,0,1-344-149.434h-1.7v1.317a5.12,5.12,0,0,0,4.574,2.818" transform="translate(346.248 155.526)" fill="#fff"/>
              <path id="Fill-12" d="M-349.727-183.817a3.072,3.072,0,0,1-.161-.979,3.072,3.072,0,0,1,.161-.979v-1.317h-1.7a5.084,5.084,0,0,0-.545,2.3,5.081,5.081,0,0,0,.545,2.3Z" transform="translate(351.972 189.909)" fill="#fff"/>
              <path id="Fill-14" d="M-341.129-217.465a2.78,2.78,0,0,1,1.964.767h0l1.461-1.46a4.921,4.921,0,0,0-3.425-1.332,5.119,5.119,0,0,0-4.574,2.817l1.7,1.317a3.062,3.062,0,0,1,2.874-2.111" transform="translate(346.248 219.489)" fill="#fff"/>
            </g>
          </g>
        </g>
      </g>
    </g>
    <path id="Path_4900" data-name="Path 4900" d="M35.692.523h.4q.164,0,.328,0a4.4,4.4,0,0,1,.659.057,1.965,1.965,0,0,1,.556.182,1.822,1.822,0,0,1,.8.8,1.954,1.954,0,0,1,.182.556,4.351,4.351,0,0,1,.056.658q0,.163.005.328c0,.132,0,.266,0,.4V21.586c0,.133,0,.266,0,.4q0,.163-.005.327a4.458,4.458,0,0,1-.056.66,1.96,1.96,0,0,1-.182.555,1.838,1.838,0,0,1-.8.8,1.958,1.958,0,0,1-.555.182,4.506,4.506,0,0,1-.657.056c-.11,0-.22,0-.331,0H3.111c-.11,0-.22,0-.327,0a4.563,4.563,0,0,1-.659-.056,1.937,1.937,0,0,1-.557-.183,1.833,1.833,0,0,1-.8-.8,1.954,1.954,0,0,1-.182-.556,4.377,4.377,0,0,1-.057-.658q0-.164,0-.327V3.112q0-.164,0-.328a4.408,4.408,0,0,1,.057-.659,1.934,1.934,0,0,1,.182-.556,1.827,1.827,0,0,1,.8-.8A1.945,1.945,0,0,1,2.125.586,4.4,4.4,0,0,1,2.784.529q.164,0,.327,0H35.692m0-.523H3.109Q2.939,0,2.77.006a4.977,4.977,0,0,0-.737.065,2.5,2.5,0,0,0-.7.231A2.366,2.366,0,0,0,.3,1.332a2.477,2.477,0,0,0-.231.7,4.908,4.908,0,0,0-.065.737q0,.169,0,.338v18.88q0,.169.005.338a4.907,4.907,0,0,0,.065.737,2.476,2.476,0,0,0,.231.7A2.347,2.347,0,0,0,1.332,24.8a2.48,2.48,0,0,0,.7.231,4.977,4.977,0,0,0,.737.065c.113,0,.225,0,.339,0H36.094q.169,0,.339,0a4.989,4.989,0,0,0,.737-.065,2.5,2.5,0,0,0,.7-.231A2.343,2.343,0,0,0,38.9,23.765a2.46,2.46,0,0,0,.231-.7,4.907,4.907,0,0,0,.065-.737q0-.169.005-.338c0-.134,0-.268,0-.4V3.511c0-.134,0-.268,0-.4q0-.169-.005-.338a4.914,4.914,0,0,0-.065-.737,2.476,2.476,0,0,0-.231-.7A2.356,2.356,0,0,0,37.871.3a2.5,2.5,0,0,0-.7-.231,4.989,4.989,0,0,0-.737-.065c-.113,0-.226,0-.339-.005h-.4Z" transform="translate(0 0)" fill="#fff"/>
  </g>
</svg>
