<svg id="Group_214" data-name="Group 214" xmlns="http://www.w3.org/2000/svg" width="39.203" height="25.097" viewBox="0 0 39.203 25.097">
  <g id="VISA" transform="translate(4.951 8.065)">
    <g id="Group_211" data-name="Group 211" transform="translate(0 0)">
      <g id="Group_210" data-name="Group 210">
        <path id="Path_4890" data-name="Path 4890" d="M55.55,61.207H53.2l1.468-9.02h2.349Z" transform="translate(-43.074 -52.026)" fill="#fff"/>
        <path id="Path_4891" data-name="Path 4891" d="M19.378,52.186l-2.239,6.2-.265-1.336h0L16.085,53a1,1,0,0,0-1.114-.812h-3.7l-.043.153a8.77,8.77,0,0,1,2.456,1.031l2.04,7.836H18.17l3.736-9.02H19.378Z" transform="translate(-11.226 -52.025)" fill="#fff"/>
        <path id="Path_4892" data-name="Path 4892" d="M102.079,61.206h2.156l-1.88-9.02h-1.888a1.079,1.079,0,0,0-1.084.672l-3.5,8.348h2.448l.49-1.34H101.8Zm-2.584-3.191,1.234-3.376.694,3.376Z" transform="translate(-75.455 -52.025)" fill="#fff"/>
        <path id="Path_4893" data-name="Path 4893" d="M75.618,53.849l.335-1.937a6.778,6.778,0,0,0-2.112-.393c-1.165,0-3.933.51-3.933,2.986,0,2.331,3.248,2.359,3.248,3.583s-2.913,1-3.875.233l-.349,2.025a6.579,6.579,0,0,0,2.651.51c1.6,0,4.02-.83,4.02-3.088,0-2.345-3.277-2.564-3.277-3.583S74.613,53.295,75.618,53.849Z" transform="translate(-55.009 -51.518)" fill="#fff"/>
      </g>
      <g id="Path_4894" data-name="Path 4894" transform="translate(-11.226 -52.025)" fill="red">
        <path d="M 16.55686187744141 56.07588195800781 C 16.21858787536621 55.48078536987305 15.6585111618042 54.69435501098633 14.79018211364746 53.99157333374023 C 13.52036476135254 52.96376037597656 12.22638320922852 52.4920768737793 11.61367702484131 52.31098175048828 L 14.97067260742188 52.31098175048828 C 15.86765193939209 52.31098175048828 15.95715236663818 52.98432159423828 15.96053218841553 53.01298141479492 L 15.96108245849609 53.01766204833984 L 15.96198177337646 53.02228164672852 L 16.55686187744141 56.07588195800781 Z" stroke="none"/>
        <path d="M 16.30669021606445 55.44544982910156 L 15.83928203582764 53.04618072509766 L 15.83748245239258 53.03694152832031 L 15.83638191223145 53.02758026123047 C 15.83354187011719 53.00343322753906 15.75775241851807 52.43598175048828 14.97067260742188 52.43598175048828 L 12.35629177093506 52.43598175048828 C 13.03899192810059 52.70461273193359 13.96065616607666 53.15932083129883 14.86882209777832 53.89440155029297 C 15.49500846862793 54.40121078491211 15.96395969390869 54.95169448852539 16.30669021606445 55.44544982910156 M 16.87486267089844 57.05454254150391 C 16.87486267089844 57.05454254150391 16.34283256530762 55.40902328491211 14.7115421295166 54.0887336730957 C 13.00496196746826 52.70740127563477 11.22600173950195 52.33872222900391 11.22600173950195 52.33872222900391 L 11.26943206787109 52.18598175048828 L 14.97067260742188 52.18598175048828 C 15.98912239074707 52.18598175048828 16.08467292785645 52.99838256835938 16.08467292785645 52.99838256835938 L 16.87486267089844 57.05454254150391 Z" stroke="none" fill="#fff"/>
      </g>
    </g>
  </g>
  <path id="Path_4899" data-name="Path 4899" d="M35.692.523h.4q.164,0,.328,0a4.4,4.4,0,0,1,.659.057,1.965,1.965,0,0,1,.556.182,1.822,1.822,0,0,1,.8.8,1.954,1.954,0,0,1,.182.556,4.351,4.351,0,0,1,.056.658q0,.163.005.328c0,.132,0,.266,0,.4V21.586c0,.133,0,.266,0,.4q0,.163-.005.327a4.458,4.458,0,0,1-.056.66,1.96,1.96,0,0,1-.182.555,1.838,1.838,0,0,1-.8.8,1.958,1.958,0,0,1-.555.182,4.506,4.506,0,0,1-.657.056c-.11,0-.22,0-.331,0H3.111c-.11,0-.22,0-.327,0a4.563,4.563,0,0,1-.659-.056,1.937,1.937,0,0,1-.557-.183,1.833,1.833,0,0,1-.8-.8,1.954,1.954,0,0,1-.182-.556,4.377,4.377,0,0,1-.057-.658q0-.164,0-.327V3.112q0-.164,0-.328a4.408,4.408,0,0,1,.057-.659,1.934,1.934,0,0,1,.182-.556,1.827,1.827,0,0,1,.8-.8A1.945,1.945,0,0,1,2.125.586,4.4,4.4,0,0,1,2.784.529q.164,0,.327,0H35.692m0-.523H3.109Q2.939,0,2.77.006a4.977,4.977,0,0,0-.737.065,2.5,2.5,0,0,0-.7.231A2.366,2.366,0,0,0,.3,1.332a2.477,2.477,0,0,0-.231.7,4.908,4.908,0,0,0-.065.737q0,.169,0,.338v18.88q0,.169.005.338a4.907,4.907,0,0,0,.065.737,2.476,2.476,0,0,0,.231.7A2.347,2.347,0,0,0,1.332,24.8a2.48,2.48,0,0,0,.7.231,4.977,4.977,0,0,0,.737.065c.113,0,.225,0,.339,0H36.094q.169,0,.339,0a4.989,4.989,0,0,0,.737-.065,2.5,2.5,0,0,0,.7-.231A2.343,2.343,0,0,0,38.9,23.765a2.46,2.46,0,0,0,.231-.7,4.907,4.907,0,0,0,.065-.737q0-.169.005-.338c0-.134,0-.268,0-.4V3.511c0-.134,0-.268,0-.4q0-.169-.005-.338a4.914,4.914,0,0,0-.065-.737,2.476,2.476,0,0,0-.231-.7A2.356,2.356,0,0,0,37.871.3a2.5,2.5,0,0,0-.7-.231,4.989,4.989,0,0,0-.737-.065c-.113,0-.226,0-.339-.005h-.4Z" transform="translate(0 0)" fill="#fff"/>
</svg>
