<svg id="apple-pay-payment-mark-seeklogo.com" xmlns="http://www.w3.org/2000/svg" width="39.203" height="25.097" viewBox="0 0 39.203 25.097">
  <path id="Path_4895" data-name="Path 4895" d="M36.17,1h.4q.164,0,.328,0a4.4,4.4,0,0,1,.659.057,1.965,1.965,0,0,1,.556.182,1.822,1.822,0,0,1,.8.8,1.953,1.953,0,0,1,.182.556,4.352,4.352,0,0,1,.056.658q0,.163.005.328c0,.132,0,.266,0,.4V22.063c0,.133,0,.266,0,.4q0,.163-.005.327a4.458,4.458,0,0,1-.056.66,1.96,1.96,0,0,1-.182.555,1.838,1.838,0,0,1-.8.8,1.958,1.958,0,0,1-.555.182,4.506,4.506,0,0,1-.657.056c-.11,0-.22,0-.331,0H3.588c-.11,0-.22,0-.327,0A4.562,4.562,0,0,1,2.6,24.99a1.937,1.937,0,0,1-.557-.183,1.833,1.833,0,0,1-.8-.8,1.954,1.954,0,0,1-.182-.556,4.377,4.377,0,0,1-.057-.658q0-.164,0-.327V3.59q0-.164,0-.328A4.408,4.408,0,0,1,1.062,2.6a1.934,1.934,0,0,1,.182-.556,1.827,1.827,0,0,1,.8-.8A1.945,1.945,0,0,1,2.6,1.063a4.4,4.4,0,0,1,.659-.057q.164,0,.327,0H36.17" transform="translate(-0.477 -0.477)" fill="none"/>
  <path id="Path_4896" data-name="Path 4896" d="M35.692.523h.4q.164,0,.328,0a4.4,4.4,0,0,1,.659.057,1.965,1.965,0,0,1,.556.182,1.822,1.822,0,0,1,.8.8,1.954,1.954,0,0,1,.182.556,4.351,4.351,0,0,1,.056.658q0,.163.005.328c0,.132,0,.266,0,.4V21.586c0,.133,0,.266,0,.4q0,.163-.005.327a4.458,4.458,0,0,1-.056.66,1.96,1.96,0,0,1-.182.555,1.838,1.838,0,0,1-.8.8,1.958,1.958,0,0,1-.555.182,4.506,4.506,0,0,1-.657.056c-.11,0-.22,0-.331,0H3.111c-.11,0-.22,0-.327,0a4.563,4.563,0,0,1-.659-.056,1.937,1.937,0,0,1-.557-.183,1.833,1.833,0,0,1-.8-.8,1.954,1.954,0,0,1-.182-.556,4.377,4.377,0,0,1-.057-.658q0-.164,0-.327V3.112q0-.164,0-.328a4.408,4.408,0,0,1,.057-.659,1.934,1.934,0,0,1,.182-.556,1.827,1.827,0,0,1,.8-.8A1.945,1.945,0,0,1,2.125.586,4.4,4.4,0,0,1,2.784.529q.164,0,.327,0H35.692m0-.523H3.109Q2.939,0,2.77.006a4.977,4.977,0,0,0-.737.065,2.5,2.5,0,0,0-.7.231A2.366,2.366,0,0,0,.3,1.332a2.477,2.477,0,0,0-.231.7,4.908,4.908,0,0,0-.065.737q0,.169,0,.338v18.88q0,.169.005.338a4.907,4.907,0,0,0,.065.737,2.476,2.476,0,0,0,.231.7A2.347,2.347,0,0,0,1.332,24.8a2.48,2.48,0,0,0,.7.231,4.977,4.977,0,0,0,.737.065c.113,0,.225,0,.339,0H36.094q.169,0,.339,0a4.989,4.989,0,0,0,.737-.065,2.5,2.5,0,0,0,.7-.231A2.343,2.343,0,0,0,38.9,23.765a2.46,2.46,0,0,0,.231-.7,4.907,4.907,0,0,0,.065-.737q0-.169.005-.338c0-.134,0-.268,0-.4V3.511c0-.134,0-.268,0-.4q0-.169-.005-.338a4.914,4.914,0,0,0-.065-.737,2.476,2.476,0,0,0-.231-.7A2.356,2.356,0,0,0,37.871.3a2.5,2.5,0,0,0-.7-.231,4.989,4.989,0,0,0-.737-.065c-.113,0-.226,0-.339-.005h-.4Z" transform="translate(0 0)" fill="#fff"/>
  <path id="Path_4897" data-name="Path 4897" d="M17.292,12.891a2.286,2.286,0,0,0,.54-1.656,2.324,2.324,0,0,0-1.527.786,2.158,2.158,0,0,0-.548,1.6A1.92,1.92,0,0,0,17.292,12.891Zm1.5,3.855a2.352,2.352,0,0,1,1.122-1.977,2.429,2.429,0,0,0-1.9-1.026c-.808-.08-1.578.476-1.986.476s-1.04-.463-1.712-.449a2.537,2.537,0,0,0-2.146,1.3c-.912,1.591-.232,3.941.659,5.227.436.63.955,1.338,1.638,1.312.658-.026.9-.426,1.7-.426s1.017.425,1.71.413,1.155-.643,1.589-1.276a5.649,5.649,0,0,0,.715-1.473A2.3,2.3,0,0,1,18.794,16.746Zm8.416-3.856A2.642,2.642,0,0,0,26.2,12.3a4.586,4.586,0,0,0-1.439-.2,9.412,9.412,0,0,0-1.058.055q-.439.049-.875.123l-.085.015V21.53h.843V17.638a5.787,5.787,0,0,0,.968.074,4.689,4.689,0,0,0,1.329-.181,2.97,2.97,0,0,0,1.066-.556,2.688,2.688,0,0,0,.712-.925,2.984,2.984,0,0,0,.26-1.28,2.892,2.892,0,0,0-.187-1.071A2.45,2.45,0,0,0,27.209,12.89Zm-.775,3.528a2.768,2.768,0,0,1-1.823.547c-.214,0-.416-.009-.6-.027a2.823,2.823,0,0,1-.423-.071V12.939c.111-.02.249-.04.411-.057a7.082,7.082,0,0,1,.736-.033,3.508,3.508,0,0,1,.964.125,2.218,2.218,0,0,1,.741.363,1.57,1.57,0,0,1,.472.606,2.155,2.155,0,0,1,.167.882,1.976,1.976,0,0,1-.643,1.593Zm6.526,4.246c-.009-.261-.013-.524-.013-.785V17.312a4.839,4.839,0,0,0-.091-.923,2.343,2.343,0,0,0-.349-.86A1.956,1.956,0,0,0,31.8,14.9a2.447,2.447,0,0,0-1.16-.243,3.7,3.7,0,0,0-.994.133,3.158,3.158,0,0,0-.93.442l-.068.048.285.667.1-.07a2.757,2.757,0,0,1,.73-.347,2.728,2.728,0,0,1,.809-.124,1.571,1.571,0,0,1,.832.189,1.26,1.26,0,0,1,.455.468,1.782,1.782,0,0,1,.2.6,4.067,4.067,0,0,1,.047.58v.074a5.348,5.348,0,0,0-2.875.62A2.1,2.1,0,0,0,28.2,19.79a2.041,2.041,0,0,0,.121.684,1.768,1.768,0,0,0,.368.611,1.805,1.805,0,0,0,.626.431,2.191,2.191,0,0,0,.876.164,2.454,2.454,0,0,0,1.325-.362,2.548,2.548,0,0,0,.46-.36q.084-.085.161-.177h.032l.077.75h.813l-.022-.12a5.176,5.176,0,0,1-.08-.745ZM32.1,19.349a1.457,1.457,0,0,1-.062.361,1.845,1.845,0,0,1-.227.451,1.733,1.733,0,0,1-.883.667,2.063,2.063,0,0,1-.676.1,1.338,1.338,0,0,1-.444-.076,1.072,1.072,0,0,1-.374-.224,1.114,1.114,0,0,1-.262-.38,1.423,1.423,0,0,1-.1-.564,1.266,1.266,0,0,1,.288-.869,1.893,1.893,0,0,1,.752-.51,3.857,3.857,0,0,1,1.016-.232,9.252,9.252,0,0,1,.973-.042Zm6.58-4.545L37.11,19.083c-.1.258-.19.519-.273.772-.041.127-.079.246-.118.36h-.03q-.059-.187-.12-.374c-.082-.251-.169-.5-.259-.732L34.627,14.8h-.9l2.408,6.189a.71.71,0,0,1,.073.245.943.943,0,0,1-.074.247,4.489,4.489,0,0,1-.511.949,5.627,5.627,0,0,1-.527.633,2.879,2.879,0,0,1-.564.447A5.392,5.392,0,0,1,34,23.8l-.091.041.293.713.093-.035c.076-.029.22-.094.437-.2a3.332,3.332,0,0,0,.722-.512,3.735,3.735,0,0,0,.608-.684,8.39,8.39,0,0,0,.53-.887c.173-.332.345-.709.513-1.123s.349-.88.536-1.38L39.585,14.8h-.9Z" transform="translate(-5.603 -5.361)" fill="#fff"/>
</svg>
