<svg id="Group_213" data-name="Group 213" xmlns="http://www.w3.org/2000/svg" width="39.203" height="25.097" viewBox="0 0 39.203 25.097">
  <g id="Master_Card_преобразованный_" data-name="Master_Card [преобразованный]" transform="translate(6.375 4.938)">
    <g id="Group_209" data-name="Group 209" transform="translate(0 0)">
      <g id="Group_204" data-name="Group 204">
        <g id="Group_203" data-name="Group 203">
          <path id="Path_4868" data-name="Path 4868" d="M255.348,365.968a7.845,7.845,0,1,1-7.845-7.845A7.845,7.845,0,0,1,255.348,365.968Z" transform="translate(-239.658 -358.123)" fill="#fff"/>
          <g id="Group_202" data-name="Group 202" transform="translate(10.325)">
            <path id="Path_4869" data-name="Path 4869" d="M306.323,358.123a8.075,8.075,0,0,0-6.208,2.861h1.624a8.008,8.008,0,0,1,.613.831H299.5a7.835,7.835,0,0,0-.463.831h3.776a7.755,7.755,0,0,1,.34.83H298.7a7.6,7.6,0,0,0-.234.831h4.924a7.711,7.711,0,0,1-.233,4.154H298.7a7.8,7.8,0,0,0,.34.831h3.776a7.773,7.773,0,0,1-.464.831H299.5a7.919,7.919,0,0,0,.613.83h1.624a7.927,7.927,0,0,1-.812.831,8.121,8.121,0,0,0,5.4,2.03,7.848,7.848,0,1,0,0-15.691Z" transform="translate(-298.464 -358.123)" fill="none" stroke="#fff" stroke-width="0.3"/>
          </g>
        </g>
      </g>
      <g id="Group_208" data-name="Group 208" transform="translate(0.501 5.831)">
        <g id="Group_205" data-name="Group 205" transform="translate(0 0.106)">
          <path id="Path_4871" data-name="Path 4871" d="M264.862,397.537a1.417,1.417,0,0,0-.19-.013c-.483,0-.727.166-.727.493a.3.3,0,0,0,.305.329C264.6,398.346,264.847,398.016,264.862,397.537Zm.619,1.442h-.706l.016-.335a1.069,1.069,0,0,1-.893.391.8.8,0,0,1-.778-.884c0-.788.55-1.248,1.5-1.248a2.9,2.9,0,0,1,.347.025.8.8,0,0,0,.033-.21c0-.214-.148-.294-.546-.294a2.842,2.842,0,0,0-.9.146c.009-.054.118-.728.118-.728a3.385,3.385,0,0,1,1.019-.171c.732,0,1.119.328,1.118.949a4.129,4.129,0,0,1-.069.641C265.661,397.73,265.5,398.735,265.481,398.979Z" transform="translate(-259.349 -394.771)" fill="red"/>
          <path id="Path_4872" data-name="Path 4872" d="M245.824,395.966h-.852l.488-3.059-1.09,3.059h-.58l-.072-3.042-.513,3.042h-.8l.666-3.979H244.3l.074,2.227.747-2.227h1.362Z" transform="translate(-242.409 -391.758)" fill="red"/>
          <path id="Path_4873" data-name="Path 4873" d="M338.542,397.537a1.412,1.412,0,0,0-.19-.013c-.483,0-.727.166-.727.493a.3.3,0,0,0,.305.329C338.277,398.346,338.527,398.016,338.542,397.537Zm.62,1.442h-.706l.016-.335a1.069,1.069,0,0,1-.892.391.8.8,0,0,1-.778-.884c0-.788.55-1.248,1.5-1.248a2.905,2.905,0,0,1,.347.025.794.794,0,0,0,.033-.21c0-.214-.148-.294-.546-.294a2.846,2.846,0,0,0-.9.146c.009-.054.119-.728.119-.728a3.383,3.383,0,0,1,1.019-.171c.732,0,1.119.328,1.118.949a4.129,4.129,0,0,1-.069.641C339.342,397.73,339.183,398.735,339.162,398.979Z" transform="translate(-319.613 -394.771)" fill="red"/>
          <path id="Path_4874" data-name="Path 4874" d="M291.1,397.055a1.95,1.95,0,0,1-.612.1.623.623,0,0,1-.673-.711,7.5,7.5,0,0,1,.117-.862c.049-.3.369-2.208.369-2.208h.846l-.1.49h.511l-.115.778h-.513c-.1.615-.238,1.382-.24,1.484,0,.167.089.24.292.24a.693.693,0,0,0,.23-.031Z" transform="translate(-281.178 -392.895)" fill="red"/>
          <path id="Path_4875" data-name="Path 4875" d="M300.743,398.9a2.884,2.884,0,0,1-.869.131,1.287,1.287,0,0,1-1.442-1.444c0-1.106.628-1.921,1.482-1.921a1.081,1.081,0,0,1,1.144,1.171,3.465,3.465,0,0,1-.1.8h-1.686c-.057.469.243.665.736.665a2.01,2.01,0,0,0,.88-.2Zm-.476-1.918c0-.067.09-.578-.394-.578-.27,0-.462.206-.541.578Z" transform="translate(-288.231 -394.771)" fill="red"/>
          <path id="Path_4876" data-name="Path 4876" d="M277.439,396.767a.945.945,0,0,0,.648.9c.345.162.4.21.4.357,0,.2-.152.293-.489.293a2.392,2.392,0,0,1-.763-.128l-.117.748a3.964,3.964,0,0,0,.886.1c.9,0,1.314-.342,1.314-1.081a.886.886,0,0,0-.6-.9c-.357-.164-.4-.2-.4-.351,0-.175.142-.264.417-.264a4.7,4.7,0,0,1,.612.049l.121-.75a5.739,5.739,0,0,0-.75-.063C277.766,395.671,277.436,396.168,277.439,396.767Z" transform="translate(-270.797 -394.771)" fill="red"/>
          <path id="Path_4877" data-name="Path 4877" d="M316.653,391.713a1.621,1.621,0,0,1,.761.215l.14-.864a2.5,2.5,0,0,0-.936-.337,1.7,1.7,0,0,0-1.391.749c-.494-.164-.7.167-.947.5l-.221.051a1.638,1.638,0,0,0,.027-.325H313.3c-.107,1-.3,2.016-.444,3.019l-.039.217h.852c.142-.924.22-1.515.268-1.916l.321-.178c.048-.178.2-.239.5-.231a3.64,3.64,0,0,0-.06.663c0,1.059.572,1.718,1.488,1.718a2.661,2.661,0,0,0,.753-.116l.149-.907a1.657,1.657,0,0,1-.723.2c-.5,0-.795-.366-.795-.97C315.572,392.327,316.017,391.713,316.653,391.713Z" transform="translate(-299.998 -390.728)" fill="red"/>
          <path id="Path_4878" data-name="Path 4878" d="M355.353,391.986l-.189,1.15a1.064,1.064,0,0,0-.813-.528,1.319,1.319,0,0,0-1.077.806,6.954,6.954,0,0,1-.725-.2v0a4.8,4.8,0,0,0,.038-.487H351.8c-.106,1-.3,2.016-.444,3.018l-.039.218h.852c.115-.747.2-1.368.268-1.859.291-.263.437-.492.731-.477a2.777,2.777,0,0,0-.206,1.05c0,.809.409,1.343,1.028,1.343a1,1,0,0,0,.785-.357l-.04.3h.806l.648-3.979Zm-1.065,3.232c-.29,0-.436-.215-.436-.638,0-.636.274-1.087.66-1.087.293,0,.451.223.451.634C354.963,394.768,354.684,395.218,354.287,395.218Z" transform="translate(-331.487 -391.757)" fill="red"/>
        </g>
        <g id="Group_207" data-name="Group 207" transform="translate(14.946)">
          <path id="Path_4881" data-name="Path 4881" d="M327.338,390.351l-.139.864a1.626,1.626,0,0,0-.761-.215c-.636,0-1.082.615-1.082,1.491,0,.6.3.969.795.969a1.645,1.645,0,0,0,.724-.2l-.15.907a2.659,2.659,0,0,1-.753.117c-.917,0-1.488-.659-1.488-1.718,0-1.423.79-2.417,1.918-2.417A2.954,2.954,0,0,1,327.338,390.351Z" transform="translate(-324.484 -390.144)" fill="#fff"/>
          <path id="Path_4882" data-name="Path 4882" d="M339.888,396.242a1.418,1.418,0,0,0-.19-.013c-.483,0-.727.165-.727.492a.3.3,0,0,0,.305.33C339.623,397.051,339.874,396.72,339.888,396.242Zm.62,1.442H339.8l.016-.335a1.07,1.07,0,0,1-.892.391.8.8,0,0,1-.778-.884c0-.788.55-1.247,1.495-1.247a2.852,2.852,0,0,1,.347.025.8.8,0,0,0,.034-.21c0-.214-.148-.294-.546-.294a2.828,2.828,0,0,0-.9.145c.009-.054.118-.728.118-.728a3.4,3.4,0,0,1,1.02-.171c.731,0,1.119.329,1.118.949a4.105,4.105,0,0,1-.069.641C340.688,396.433,340.53,397.439,340.508,397.683Z" transform="translate(-335.66 -393.604)" fill="#fff"/>
          <path id="Path_4886" data-name="Path 4886" d="M364.276,394.671h-.806l.04-.3a1,1,0,0,1-.785.357c-.619,0-1.028-.534-1.028-1.343,0-1.076.635-1.984,1.386-1.984a.961.961,0,0,1,.813.442l.189-1.15h.84Zm-1.256-.747c.4,0,.675-.45.675-1.09,0-.411-.159-.635-.451-.635-.386,0-.66.451-.66,1.087C362.583,393.709,362.73,393.923,363.02,393.923Z" transform="translate(-354.92 -390.592)" fill="#fff"/>
          <path id="Path_4887" data-name="Path 4887" d="M353.151,394.616c-.107,1-.3,2.016-.444,3.018l-.039.218h.852c.3-1.979.378-2.365.856-2.317a3.174,3.174,0,0,1,.323-.939c-.357-.074-.556.127-.817.51a2.972,2.972,0,0,0,.051-.491h-.783Z" transform="translate(-347.536 -393.773)" fill="#fff"/>
          <g id="Group_206" data-name="Group 206" transform="translate(9.73 3.572)">
            <path id="Path_4889" data-name="Path 4889" d="M377.915,410.012a.253.253,0,1,1,.253.253A.253.253,0,0,1,377.915,410.012Zm.253.192a.193.193,0,1,0-.192-.192A.193.193,0,0,0,378.168,410.2Zm-.034-.082h-.052V409.9h.094a.1.1,0,0,1,.057.011.066.066,0,0,1,.028.056.061.061,0,0,1-.038.058l.041.1h-.057l-.034-.088h-.038v.088Zm0-.126h.029a.065.065,0,0,0,.032,0,.03.03,0,0,0,.013-.026.03.03,0,0,0-.012-.023.077.077,0,0,0-.033,0h-.028Z" transform="translate(-377.915 -409.758)" fill="#fff"/>
          </g>
        </g>
      </g>
    </g>
  </g>
  <path id="Path_4898" data-name="Path 4898" d="M35.692.523h.4q.164,0,.328,0a4.4,4.4,0,0,1,.659.057,1.965,1.965,0,0,1,.556.182,1.822,1.822,0,0,1,.8.8,1.954,1.954,0,0,1,.182.556,4.351,4.351,0,0,1,.056.658q0,.163.005.328c0,.132,0,.266,0,.4V21.586c0,.133,0,.266,0,.4q0,.163-.005.327a4.458,4.458,0,0,1-.056.66,1.96,1.96,0,0,1-.182.555,1.838,1.838,0,0,1-.8.8,1.958,1.958,0,0,1-.555.182,4.506,4.506,0,0,1-.657.056c-.11,0-.22,0-.331,0H3.111c-.11,0-.22,0-.327,0a4.563,4.563,0,0,1-.659-.056,1.937,1.937,0,0,1-.557-.183,1.833,1.833,0,0,1-.8-.8,1.954,1.954,0,0,1-.182-.556,4.377,4.377,0,0,1-.057-.658q0-.164,0-.327V3.112q0-.164,0-.328a4.408,4.408,0,0,1,.057-.659,1.934,1.934,0,0,1,.182-.556,1.827,1.827,0,0,1,.8-.8A1.945,1.945,0,0,1,2.125.586,4.4,4.4,0,0,1,2.784.529q.164,0,.327,0H35.692m0-.523H3.109Q2.939,0,2.77.006a4.977,4.977,0,0,0-.737.065,2.5,2.5,0,0,0-.7.231A2.366,2.366,0,0,0,.3,1.332a2.477,2.477,0,0,0-.231.7,4.908,4.908,0,0,0-.065.737q0,.169,0,.338v18.88q0,.169.005.338a4.907,4.907,0,0,0,.065.737,2.476,2.476,0,0,0,.231.7A2.347,2.347,0,0,0,1.332,24.8a2.48,2.48,0,0,0,.7.231,4.977,4.977,0,0,0,.737.065c.113,0,.225,0,.339,0H36.094q.169,0,.339,0a4.989,4.989,0,0,0,.737-.065,2.5,2.5,0,0,0,.7-.231A2.343,2.343,0,0,0,38.9,23.765a2.46,2.46,0,0,0,.231-.7,4.907,4.907,0,0,0,.065-.737q0-.169.005-.338c0-.134,0-.268,0-.4V3.511c0-.134,0-.268,0-.4q0-.169-.005-.338a4.914,4.914,0,0,0-.065-.737,2.476,2.476,0,0,0-.231-.7A2.356,2.356,0,0,0,37.871.3a2.5,2.5,0,0,0-.7-.231,4.989,4.989,0,0,0-.737-.065c-.113,0-.226,0-.339-.005h-.4Z" transform="translate(0 0)" fill="#fff"/>
</svg>
