<svg xmlns="http://www.w3.org/2000/svg" width="950.841" height="176.5" viewBox="0 0 950.841 176.5">
  <g id="Group_311" data-name="Group 311" transform="translate(-484.655 -452)">
    <g id="Group_258" data-name="Group 258" transform="translate(97.496 76.5)">
      <g id="Group_256" data-name="Group 256" transform="translate(-175.559 -2247.6)">
        <g id="BrandBook_Unlim-01-02" data-name="BrandBook Unlim-01-02" transform="translate(603.533 2685.749)">
          <path id="Path_2" data-name="Path 2" d="M194.752,60.945c1.971-7.468,3.838-14.729,5.705-21.886.934-3.527-.207-4.979-3.838-5.083-4.668-.1-4.668-.1-5.912,4.46-1.763,6.846-3.63,13.692-5.394,20.538-.415,1.66-1.141,2.489-3.008,2.489q-7.468-.156-14.937,0c-1.66,0-2.178-.519-1.763-2.282,2.8-10.269,5.5-20.538,8.194-30.807a3.4,3.4,0,0,1,3.008-2.8,96.051,96.051,0,0,1,26.139-1.867c3.112.207,6.12,1.348,9.128,1.971,1.348.311,2.9.726,4.045.311a58.447,58.447,0,0,1,20.331-2.282,26.33,26.33,0,0,1,7.468,1.348c5.809,1.971,7.78,5.809,6.224,11.825l-5.6,21.783c-.519,2.075-1.452,3.008-3.838,2.9-5.29-.207-10.58-.1-16.493-.1.934-3.734,1.763-7.157,2.593-10.476,1.037-3.942,2.075-7.78,3.112-11.721.934-3.527-.415-5.186-4.045-5.186-4.46-.1-4.668.1-5.809,4.357-1.867,6.95-3.63,13.9-5.6,20.745-.311.934-1.452,2.178-2.282,2.178-5.5.207-11,.1-16.389.1C195.686,61.256,195.375,61.049,194.752,60.945Z" transform="translate(6.132 0.877)" fill="red"/>
          <path id="Path_3" data-name="Path 3" d="M82.659,61.265c.934-3.63,1.66-6.846,2.489-10.062,1.141-4.46,2.386-8.921,3.527-13.381a2.851,2.851,0,0,0-.1-1.867c-1.556-2.8-4.253-1.971-6.639-2.075-1.867,0-2.489,1.348-2.9,2.8-1.867,7.053-3.734,14.107-5.5,21.264-.622,2.386-1.452,3.527-4.149,3.319-4.46-.207-8.921-.1-13.381-.1H53.2c1.141-4.357,2.075-8.3,3.112-12.24,1.763-6.742,3.63-13.485,5.394-20.227.519-2.075,1.556-2.9,3.63-3.423,9.232-2.075,18.671-2.178,28.11-1.867a34.719,34.719,0,0,1,9.647,1.971c5.29,1.763,7.157,5.394,5.809,10.788-1.867,7.572-3.942,15.144-6.016,22.613-.207.83-1.245,2.178-1.867,2.178C94.9,61.369,89.09,61.265,82.659,61.265Z" transform="translate(1.948 0.867)" fill="red"/>
          <path id="Path_4" data-name="Path 4" d="M26.242,24.2c-1.556,5.912-2.9,11.2-4.253,16.389-.519,2.075-1.141,4.149-1.66,6.224-.726,2.9.519,4.357,3.527,4.564,4.564.207,4.771.1,5.912-4.357,1.763-6.742,3.63-13.485,5.394-20.227A2.8,2.8,0,0,1,38.274,24.3H52.692c1.867,0,2.7.415,2.075,2.7-2.7,9.75-5.29,19.5-7.676,29.355-.934,3.838-3.838,4.045-6.535,4.357-7.261.726-14.418,1.348-21.679,1.452A41.444,41.444,0,0,1,8.193,60.712C2.177,59.156-1.453,55.318.621,47.642,2.384,40.8,4.252,33.95,6.015,27.1c.519-2.075,1.556-2.9,3.63-2.8C14.935,24.3,20.329,24.2,26.242,24.2Z" transform="translate(-0.034 0.902)" fill="red"/>
          <path id="Path_5" data-name="Path 5" d="M142.995,8c-.934,3.63-1.66,6.846-2.489,10.165-3.63,13.588-7.261,27.177-10.788,40.868-.519,2.178-1.452,3.008-3.734,2.9-4.771-.207-9.439-.1-14.211,0-1.971,0-2.282-.726-1.867-2.386,4.357-16.285,8.609-32.674,12.966-48.959.207-.934,1.245-2.282,1.971-2.386C130.755,8,136.667,8,142.995,8Z" transform="translate(4.055 0.298)" fill="red"/>
          <path id="Path_6" data-name="Path 6" d="M166.431,24.615c-1.556,6.016-3.008,11.721-4.46,17.426-1.452,5.6-3.008,11.1-4.46,16.7-.415,1.763-1.245,2.593-3.216,2.489-4.771-.1-9.647-.1-14.418,0-1.867,0-2.49-.415-1.971-2.489,2.9-10.58,5.6-21.16,8.3-31.741.519-2.075,1.556-2.9,3.63-2.8,4.668.1,9.335,0,13.9,0C164.564,24.3,165.29,24.408,166.431,24.615Z" transform="translate(5.099 0.902)" fill="red"/>
          <g id="Group_35" data-name="Group 35" transform="translate(155.071 0)">
            <path id="Path_7" data-name="Path 7" d="M234.28,16.285H219.136c-3.63,0-4.357-1.141-3.423-4.668.726-2.489,1.452-5.083,2.178-7.572.934-2.9,2.282-4.045,5.186-4.045H254.4c3.008,0,3.942,1.348,3.112,4.253-.726,2.7-1.556,5.394-2.386,8.091-.83,2.8-2.282,3.942-5.29,3.942Z" transform="translate(-147.08 0)"/>
            <path id="Path_8" data-name="Path 8" d="M191.607,16.121H180.4c-2.593,0-3.319-.934-2.7-3.423.415-1.66.83-3.319,1.348-4.979A4.056,4.056,0,0,1,183.309,4.4h22.82c2.593,0,3.215.83,2.593,3.319-.415,1.763-.934,3.527-1.348,5.29a3.993,3.993,0,0,1-4.357,3.216C199.179,16.121,195.445,16.121,191.607,16.121Z" transform="translate(-148.49 0.164)"/>
            <path id="Path_9" data-name="Path 9" d="M161.013,7.7h6.742c1.867,0,3.112.519,2.282,2.9-.415,1.037-.311,2.282-.934,3.008a5.152,5.152,0,0,1-3.112,2.282c-4.668.207-9.439.1-14.211.1q-2.645,0-2.178-2.489c1.141-5.29,1.452-6.016,6.12-5.809C157.59,7.8,159.353,7.7,161.013,7.7Z" transform="translate(-149.533 0.286)"/>
          </g>
        </g>
        <path id="Path_2954" data-name="Path 2954" d="M372.044,134.758H246.728c-30.041,0-36.049-9.442-28.324-38.625,6.008-20.6,12.016-42.058,18.025-62.658C244.153,9.442,255.311,0,279.345,0H538.559c24.892,0,32.617,11.158,25.75,35.191-6.008,22.317-12.875,44.633-19.742,66.95-6.867,23.175-18.883,32.616-43.774,32.616Z" transform="translate(348.719 2653)" fill="none" stroke="red" stroke-width="3"/>
      </g>
      <text id="Thank_you_for_your_purchase_" data-name="Thank you 
for your purchase!" transform="translate(773 458)" font-size="68" font-family="SegoeUI-Semibold, Segoe UI" font-weight="600"><tspan x="0" y="0">Thank you </tspan><tspan x="0" y="77">for your purchase!</tspan></text>
      <rect id="Rectangle_1674" data-name="Rectangle 1674" width="80" height="6" transform="translate(772.5 375.5)" fill="red"/>
    </g>
  </g>
</svg>
